<svg xmlns="http://www.w3.org/2000/svg">
<defs>
<font id="c231c38f8fbd6d7d770819f81c4da63a" horiz-adv-x='1024' >
  <font-face 
    font-family="AmnestyTradeGothic-BdCn20"
    font-weight="700"
    font-stretch="condensed"
    units-per-em="2048"
    panose-1="2 11 8 6 4 3 3 2 0 4"
    ascent="1479"
    descent="-569"
    x-height="1102"
    cap-height="1479"
    bbox="-342 -483 2048 1974"
    underline-thickness="102"
    underline-position="-153"
    unicode-range="U+000D-FB02"
  />
<missing-glyph horiz-adv-x="1048" 
d="M1049 1470v-1470h-1049v1470h1049zM946 102v1264h-844v-1264h844zM680 988q0 56 -46 107q-46 50 -110 50t-109 -45q-46 -45 -59 -150l-102 17q14 145 90 213t186 68t182 -74q73 -74 72 -195q0 -66 -26 -120t-102 -124q-77 -71 -89 -109t-12 -147h-94l-4 35q0 113 26 166
q27 52 94 118t85 100t18 90zM455 240v137h114v-137h-114z" />
    <glyph glyph-name="IJ" unicode="IJ" horiz-adv-x="1114" 
d="M158 0v1479h254v-1479h-254zM551 201h53q74 1 104 31t29 92v1155h254v-1184q0 -152 -78 -235q-78 -82 -278 -80h-84v221z" />
    <glyph glyph-name="ij" unicode="ij" horiz-adv-x="892" 
d="M113 0v1102h229v-1102h-229zM113 1270v209h229v-209h-229zM793 -63q0 -285 -267 -285h-88v209h39q86 0 86 86v1153h230v-1163zM563 1270v209h230v-209h-230z" />
    <glyph glyph-name="napostrophe" unicode="&#x22;n" horiz-adv-x="1083" 
d="M743 854q0 78 -81 80q-37 0 -72 -20t-76 -50v-864h-229v1102h217v-111q37 31 77 66q73 65 183 65q210 0 211 -231v-891h-230v854zM0 1237v242h242v-242l-142 -254h-108l100 254h-92z" />
    <glyph glyph-name="fi" unicode="fi" 
d="M127 1239q0 260 256 260h115v-188h-66q-41 0 -58.5 -16.5t-17.5 -57.5v-135h131v-189h-131v-913h-229v913h-135v189h135v137zM567 0v1102h230v-1102h-230zM567 1270v209h230v-209h-230z" />
    <glyph glyph-name="fl" unicode="fl" 
d="M127 1239q0 260 256 260h115v-188h-66q-41 0 -58.5 -16.5t-17.5 -57.5v-135h131v-189h-131v-913h-229v913h-135v189h135v137zM567 0v1479h230v-1479h-230z" />
    <glyph glyph-name=".notdef" horiz-adv-x="1048" 
d="M1049 1470v-1470h-1049v1470h1049zM946 102v1264h-844v-1264h844zM680 988q0 56 -46 107q-46 50 -110 50t-109 -45q-46 -45 -59 -150l-102 17q14 145 90 213t186 68t182 -74q73 -74 72 -195q0 -66 -26 -120t-102 -124q-77 -71 -89 -109t-12 -147h-94l-4 35q0 113 26 166
q27 52 94 118t85 100t18 90zM455 240v137h114v-137h-114z" />
    <glyph glyph-name=".null" horiz-adv-x="0" 
 />
    <glyph glyph-name="nonmarkingreturn" unicode="&#xd;" horiz-adv-x="569" 
 />
    <glyph glyph-name="space" unicode=" " horiz-adv-x="454" 
 />
    <glyph glyph-name="exclam" unicode="!" horiz-adv-x="569" 
d="M156 1479h258l-45 -1045h-168zM164 0v242h242v-242h-242z" />
    <glyph glyph-name="quotedbl" unicode="&#x22;" horiz-adv-x="681" 
d="M82 1479h192v-561h-192v561zM408 1479h192v-561h-192v561z" />
    <glyph glyph-name="numbersign" unicode="#" 
d="M836 438h-148l-49 -438h-184l51 438h-166l-49 -438h-187l52 438h-136v160h156l31 283h-135v159h155l52 439h182l-51 -439h165l52 439h182l-51 -439h131v-159h-148l-32 -283h127v-160zM393 881l-33 -283h164l33 283h-164z" />
    <glyph glyph-name="dollar" unicode="$" 
d="M393 1659h123v-180q176 -33 285 -187l-156 -133q-23 39 -52.5 74t-76.5 45v-424q152 -95 214.5 -166.5t90 -138t27.5 -148.5q0 -165 -89 -277t-243 -124v-238h-123v238q-106 10 -191 77.5t-141 153.5l170 129q20 -53 61.5 -100t100.5 -63v481q-148 93 -229.5 189.5
t-81.5 238.5t83 247t228 126v180zM631 389q0 74 -32 119t-83 92v-403q63 25 89 71.5t26 120.5zM291 1119q0 -104 102 -197v356q-47 -16 -74.5 -57t-27.5 -102z" />
    <glyph glyph-name="percent" unicode="%" horiz-adv-x="1593" 
d="M102 1142.5q0 69.5 27 131t72 106.5t106.5 72t131 27t131 -27t106.5 -72t71.5 -106.5t26.5 -131t-26.5 -131t-71.5 -106.5t-106.5 -71.5t-131 -26.5t-131 26.5t-106.5 71.5t-72 106.5t-27 131zM819 336q0 70 26.5 131t72 106t106.5 72t131 27t131.5 -27t106.5 -72
t71.5 -106t26.5 -131t-26.5 -131.5t-71.5 -106.5t-106.5 -71.5t-131.5 -26.5t-131 26.5t-106.5 71.5t-72 106.5t-26.5 131.5zM1294 1499l-837 -1519h-154l838 1519h153zM983 336q0 -72 50 -122t122 -50t122 50t50 122t-50 122t-122 50t-122 -50t-50 -122zM266 1142.5
q0 -71.5 50.5 -121.5t122 -50t121.5 50t50 121.5t-50 122t-121.5 50.5t-122 -50.5t-50.5 -122z" />
    <glyph glyph-name="ampersand" unicode="&#x26;" horiz-adv-x="1138" 
d="M752 92q-116 -112 -283 -112t-265 96t-98 250q0 117 58.5 225t136.5 192q-117 257 -117 408q0 242 121 295t201 53q141 0 221 -84t80 -237t-105.5 -270t-148.5 -165q79 -163 184 -301q66 165 90 275l209 -55q-23 -102 -60.5 -196.5t-78.5 -191.5q61 -57 141 -69v-225
q-168 4 -286 112zM586 1192q0 160 -92 160q-47 0 -74 -38t-27 -131t70 -261q45 59 84 125.5t39 144.5zM340 354q0 -62 42 -107.5t93 -45.5t77 9t54 34q-134 159 -203 297q-33 -49 -48 -87t-15 -100z" />
    <glyph glyph-name="quotesingle" unicode="'" horiz-adv-x="454" 
d="M131 1479h193v-561h-193v561z" />
    <glyph glyph-name="parenleft" unicode="(" horiz-adv-x="569" 
d="M262 661.5q0 -465.5 242 -837.5h-197q-113 176 -177 393t-64 444.5t64.5 444.5t176.5 393h197q-242 -372 -242 -837.5z" />
    <glyph glyph-name="parenright" unicode=")" horiz-adv-x="569" 
d="M307 660q0 465 -241 839h196q113 -176 177.5 -393t64.5 -444.5t-64.5 -444.5t-177.5 -393h-196q241 371 241 836z" />
    <glyph glyph-name="asterisk" unicode="*" 
d="M408 1184q-10 125 -50 295h193q-40 -179 -49 -295q137 63 260 137l61 -182q-78 -4 -154.5 -14.5t-154.5 -20.5q118 -132 227 -219l-161 -113q-27 74 -60 144.5t-65 142.5q-33 -72 -66 -142.5t-59 -144.5l-162 113q116 93 227 219q-78 10 -154.5 20.5t-154.5 14.5l61 182
q123 -74 261 -137z" />
    <glyph glyph-name="plus" unicode="+" horiz-adv-x="1228" 
d="M514 1036h201v-418h418v-200h-418v-418h-201v418h-418v200h418v418z" />
    <glyph glyph-name="comma" unicode="," horiz-adv-x="454" 
d="M106 0v242h242v-242l-141 -254h-109l101 254h-93z" />
    <glyph glyph-name="hyphen" unicode="-" horiz-adv-x="681" 
d="M90 457v188h502v-188h-502z" />
    <glyph glyph-name="period" unicode="." horiz-adv-x="454" 
d="M106 0v242h242v-242h-242z" />
    <glyph glyph-name="slash" unicode="/" horiz-adv-x="569" 
d="M412 1499h200l-454 -1519h-201z" />
    <glyph glyph-name="zero" unicode="0" 
d="M94 1094q0 211 84 308t276.5 97t276.5 -97t84 -308v-709q0 -211 -84 -308t-276.5 -97t-276.5 97t-84 308v709zM573 1157q0 141 -118.5 141t-118.5 -141v-835q0 -141 118.5 -141.5t118.5 141.5v835z" />
    <glyph glyph-name="one" unicode="1" 
d="M592 1499v-1499h-230v1171h-200v138q181 90 301 190h129z" />
    <glyph glyph-name="two" unicode="2" 
d="M578 1130q0 168 -115 168q-61 0 -92 -43t-31 -110v-101h-242v70q0 164 101 274.5t265 110.5t259.5 -97.5t95.5 -230.5q0 -180 -90.5 -369t-380.5 -593h449v-209h-707v199q270 390 347 528.5t109 230t32 172.5z" />
    <glyph glyph-name="three" unicode="3" 
d="M801 414q-1 -434 -353 -434q-174 0 -264 85t-90 275v88h230v-100q0 -148 114 -148q55 0 88 41t33 133v113q0 121 -50 165t-167 44v201q116 0 161.5 47.5t45.5 164.5t-22.5 163t-78.5 46t-86 -31.5t-30 -119.5v-62h-230v70q0 156 93 250t251 94q157 0 244.5 -109.5
t87.5 -254.5q0 -144 -30.5 -222.5t-129.5 -132.5q110 -58 146.5 -134.5t36.5 -231.5z" />
    <glyph glyph-name="four" unicode="4" 
d="M475 356h-442v189l430 934h246v-934h135v-189h-135v-356h-234v356zM479 545v577h-4l-248 -577h252z" />
    <glyph glyph-name="five" unicode="5" 
d="M463 831q-99 0 -137 -112h-197q2 86 10 246t8 514h617l-8 -209h-400l-14 -320l4 -4q47 57 91 71.5t104 14.5q147 0 208.5 -101.5t61.5 -287.5v-205q0 -233 -80 -345.5t-264 -112.5q-260 0 -312.5 121.5t-52.5 213.5v113h230v-119q0 -59 30.5 -94t85.5 -35q121 0 121 180
v336q0 72 -31.5 103.5t-74.5 31.5z" />
    <glyph glyph-name="six" unicode="6" 
d="M563 1081v76q0 141 -108 141q-119 0 -119 -141v-346q54 54 96 76t105 22q129 0 203.5 -74.5t74.5 -228.5v-176q0 -236 -84 -343t-276.5 -107t-276.5 97t-84 308v709q0 211 84 308t277 97q146 4 237.5 -89.5t91.5 -238.5v-90h-221zM467 709q-47 0 -131 -68v-319
q0 -141 118.5 -141.5t118.5 141.5v245q0 72 -29.5 107t-76.5 35z" />
    <glyph glyph-name="seven" unicode="7" 
d="M115 1270v209h667v-144l-301 -1335h-239l297 1270h-424z" />
    <glyph glyph-name="eight" unicode="8" 
d="M454.5 -20q-360.5 0 -360.5 430q0 135 30 227t124 151q-68 49 -100.5 129t-32.5 166q0 215 91 315.5t248 100.5t249 -100.5t92 -315.5q0 -86 -33 -165.5t-100 -129.5q94 -59 123.5 -151t29.5 -227q0 -430 -360.5 -430zM454.5 180q73.5 0 102.5 64.5t29 181.5t-29 181.5
t-102.5 64.5t-102 -64.5t-28.5 -181.5t28.5 -181.5t102 -64.5zM454.5 893q59.5 0 85 47t25.5 155.5t-25.5 155.5t-85 47t-85 -47t-25.5 -155.5t25.5 -155.5t85 -47z" />
    <glyph glyph-name="nine" unicode="9" 
d="M346 397v-75q0 -141 109 -142q119 0 118 142v346q-57 -57 -98 -78t-103 -21q-128 0 -203 75t-75 228v177q0 236 84 343t276.5 107t276.5 -97t84 -308v-709q0 -211 -84 -308t-276 -97q-147 -4 -238.5 89.5t-91.5 237.5v90h221zM445 770q50 0 128 68v319q0 141 -118.5 141
t-118.5 -141v-246q0 -72 29.5 -106.5t79.5 -34.5z" />
    <glyph glyph-name="colon" unicode=":" horiz-adv-x="454" 
d="M106 0v242h242v-242h-242zM106 569v242h242v-242h-242z" />
    <glyph glyph-name="semicolon" unicode=";" horiz-adv-x="454" 
d="M106 0v242h242v-242l-141 -254h-109l101 254h-93zM106 569v242h242v-242h-242z" />
    <glyph glyph-name="less" unicode="&#x3c;" horiz-adv-x="1228" 
d="M1133 0l-1037 432v172l1037 432v-213l-748 -305l748 -305v-213z" />
    <glyph glyph-name="equal" unicode="=" horiz-adv-x="1228" 
d="M1133 631h-1037v200h1037v-200zM1133 205h-1037v201h1037v-201z" />
    <glyph glyph-name="greater" unicode="&#x3e;" horiz-adv-x="1228" 
d="M96 213l748 305l-748 305v213l1037 -432v-172l-1037 -432v213z" />
    <glyph glyph-name="question" unicode="?" horiz-adv-x="796" 
d="M281 434v172q0 164 73.5 296t106.5 195t33 111t-24 75.5t-60 27.5q-60 0 -97.5 -48.5t-50.5 -107.5l-196 74q47 135 135 202.5t221 67.5t221 -79.5t88 -187.5q0 -107 -28.5 -166.5t-51 -92.5t-65.5 -91t-76 -139t-33 -198v-111h-196zM254 0v242h242v-242h-242z" />
    <glyph glyph-name="at" unicode="@" horiz-adv-x="1638" 
d="M831 1149q159 0 240 -133l33 106h166l-129 -526q-4 -18 -9.5 -38.5t-5.5 -41.5q0 -55 33 -55q90 0 164 109t74 249q0 254 -155 387t-403 133t-410.5 -171t-162.5 -434q0 -262 172.5 -428.5t437.5 -166.5t435 170h170q-104 -160 -265.5 -244.5t-339.5 -84.5
q-346 0 -570 211.5t-224 547.5q0 166 60.5 305.5t165 240.5t244.5 157.5t288 56.5t275.5 -45t226 -126t156.5 -195.5t58 -262.5t-58 -259t-139 -182t-167 -103.5t-137 -32.5q-113 0 -121 110l-4 3q-41 -47 -100.5 -80t-123.5 -33q-129 0 -222 100t-93 240q0 200 123.5 358
t316.5 158zM748 477q115 0 187.5 99t72.5 193q0 93 -44 144.5t-106 51.5q-114 0 -188 -99t-74 -192t44 -145t108 -52z" />
    <glyph glyph-name="A" unicode="A" 
d="M270 0h-245l272 1479h315l273 -1479h-246l-45 328h-279zM352 549h205l-100 635h-4z" />
    <glyph glyph-name="B" unicode="B" horiz-adv-x="1024" 
d="M717 778q205 -90 205 -324q0 -222 -96.5 -338t-301.5 -116h-401v1479h377q205 0 299 -100.5t94 -277.5t-65.5 -240.5t-110.5 -82.5zM377 209h106q102 0 143.5 57.5t41.5 171.5t-47.5 170t-161.5 56h-82v-455zM377 872h92q72 0 121 48.5t49 140.5q0 209 -166 209h-96v-398
z" />
    <glyph glyph-name="C" unicode="C" horiz-adv-x="1024" 
d="M635 1100q1 178 -137 178q-64 0 -92.5 -40t-28.5 -124v-749q0 -84 28.5 -124t102.5 -40t100.5 39t26.5 110v178h254v-170q0 -165 -96 -271.5t-284 -106.5t-287 105.5t-99 272.5v762q0 167 99 273t287 106t284 -116.5t96 -288.5v-109h-254v115z" />
    <glyph glyph-name="D" unicode="D" horiz-adv-x="1024" 
d="M901 446q0 -446 -401 -446h-377v1479h377q199 0 300 -108.5t101 -338.5v-586zM377 209h88q102 0 142 45t40 162v647q0 117 -40 162t-142 45h-88v-1061z" />
    <glyph glyph-name="E" unicode="E" 
d="M123 0v1479h680v-222h-426v-380h328v-222h-328v-434h454v-221h-708z" />
    <glyph glyph-name="F" unicode="F" 
d="M123 0v1479h708v-222h-454v-380h340v-222h-340v-655h-254z" />
    <glyph glyph-name="G" unicode="G" horiz-adv-x="1024" 
d="M473 750h416v-750h-123l-47 111q-57 -68 -111.5 -99.5t-144.5 -31.5q-152 0 -246 100t-94 278v762q0 164 96 271.5t277 107.5t281 -115.5t100 -289.5v-95h-242q0 230 -54.5 254.5t-96.5 24.5t-74.5 -34t-32.5 -128v-760q0 -72 26.5 -113.5t98.5 -41.5t102.5 47t30.5 158
v143h-162v201z" />
    <glyph glyph-name="H" unicode="H" horiz-adv-x="1024" 
d="M123 0v1479h254v-602h270v602h254v-1479h-254v655h-270v-655h-254z" />
    <glyph glyph-name="I" unicode="I" horiz-adv-x="569" 
d="M158 0v1479h254v-1479h-254z" />
    <glyph glyph-name="J" unicode="J" horiz-adv-x="569" 
d="M6 201h53q74 0 104 30.5t30 92.5v1155h253v-1184q0 -152 -77.5 -233.5t-278.5 -81.5h-84v221z" />
    <glyph glyph-name="K" unicode="K" 
d="M111 0v1479h254v-547h4l266 547h254l-275 -551l310 -928h-258l-207 688h-4l-90 -164v-524h-254z" />
    <glyph glyph-name="L" unicode="L" horiz-adv-x="796" 
d="M111 0v1479h254v-1258h399v-221h-653z" />
    <glyph glyph-name="M" unicode="M" horiz-adv-x="1251" 
d="M1141 1479v-1479h-221v1155h-5l-229 -1155h-123l-229 1155h-4v-1155h-221v1479h333l181 -865h4l180 865h334z" />
    <glyph glyph-name="N" unicode="N" horiz-adv-x="1024" 
d="M123 0v1479h235l310 -846h4v846h229v-1479h-221l-324 924h-4v-924h-229z" />
    <glyph glyph-name="O" unicode="O" horiz-adv-x="1024" 
d="M123 1120q0 167 99 273t290 106t290 -106t99 -273v-762q0 -167 -99.5 -272.5t-289.5 -105.5t-289.5 105.5t-99.5 272.5v762zM377 365q0 -84 28.5 -124t106.5 -40t106.5 40t28.5 124v749q0 84 -28.5 124t-106.5 40t-106.5 -40t-28.5 -124v-749z" />
    <glyph glyph-name="P" unicode="P" horiz-adv-x="1024" 
d="M123 0v1479h364q236 0 347.5 -100.5t111.5 -334.5t-109.5 -336t-349.5 -102h-110v-606h-254zM377 815h98q126 0 171.5 47.5t45.5 180.5t-47 180t-170 47h-98v-455z" />
    <glyph glyph-name="Q" unicode="Q" horiz-adv-x="1024" 
d="M977 -111q-80 0 -137.5 26t-120.5 112q-83 -47 -195 -47q-202 0 -301.5 105.5t-99.5 272.5v762q0 167 99 273t290 106t290 -106t99 -273v-762q0 -109 -43 -190q60 -51 119 -57v-222zM647 1114q0 84 -28.5 124t-106.5 40t-106.5 -40t-28.5 -124v-749q0 -84 28.5 -124
t96.5 -40t96 22q-23 41 -39 55.5t-29 24.5v225q65 -33 117 -90v676z" />
    <glyph glyph-name="R" unicode="R" horiz-adv-x="1024" 
d="M377 606v-606h-254v1479h356q213 0 321.5 -100.5t108.5 -336.5q0 -296 -178 -372l215 -670h-258l-180 612q-38 -6 -131 -6zM377 815h90q105 0 146.5 49t41.5 179t-43 178.5t-145 48.5h-90v-455z" />
    <glyph glyph-name="S" unicode="S" 
d="M451 1278q-61 0 -94 -38t-33 -104t37.5 -119.5t95 -107t220.5 -184t163 -367.5q0 -178 -108.5 -278t-287 -100t-279 118.5t-108.5 290.5l242 35q8 -113 49 -168t105 -55t104.5 34.5t40.5 104.5t-38 127t-95 110.5t-220 180.5t-163 370q0 180 102.5 275.5t290.5 95.5
q226 0 285 -140t67 -218l-241 -27q-11 127 -63 145.5t-72 18.5z" />
    <glyph glyph-name="T" unicode="T" horiz-adv-x="796" 
d="M270 1257h-245v222h745v-222h-246v-1257h-254v1257z" />
    <glyph glyph-name="U" unicode="U" horiz-adv-x="1024" 
d="M123 1479h254v-1117q0 -162 135 -161.5t135 161.5v1117h254v-1106q0 -193 -103.5 -293t-285.5 -100t-285.5 100t-103.5 293v1106z" />
    <glyph glyph-name="V" unicode="V" 
d="M641 1479h250l-309 -1479h-254l-310 1479h250l185 -1026h4z" />
    <glyph glyph-name="W" unicode="W" horiz-adv-x="1366" 
d="M563 1479h209l172 -942h4l142 942h237l-260 -1479h-213l-184 977h-4l-172 -977h-213l-281 1479h238l155 -942h4z" />
    <glyph glyph-name="X" unicode="X" 
d="M319 774l-270 705h250l156 -469h4l141 469h250l-256 -705l287 -774h-250l-172 539h-4l-176 -539h-250z" />
    <glyph glyph-name="Y" unicode="Y" 
d="M582 0h-254v614l-308 865h259l178 -564h4l170 564h258l-307 -865v-614z" />
    <glyph glyph-name="Z" unicode="Z" 
d="M147 1257v222h672v-242l-467 -1016h467v-221h-729v242l473 1015h-416z" />
    <glyph glyph-name="bracketleft" unicode="[" horiz-adv-x="569" 
d="M512 1380h-242v-1437h242v-99h-438v1635h438v-99z" />
    <glyph glyph-name="backslash" unicode="\" horiz-adv-x="569" 
d="M612 -20h-200l-455 1519h201z" />
    <glyph glyph-name="bracketright" unicode="]" horiz-adv-x="569" 
d="M57 1479h439v-1635h-439v99h242v1437h-242v99z" />
    <glyph glyph-name="asciicircum" unicode="^" horiz-adv-x="1228" 
d="M115 618l389 861h221l389 -861h-223l-279 619l-278 -619h-219z" />
    <glyph glyph-name="underscore" unicode="_" horiz-adv-x="1024" 
d="M0 -256v102h1024v-102h-1024z" />
    <glyph glyph-name="grave" unicode="`" horiz-adv-x="454" 
d="M-66 1528h277l162 -295h-170z" />
    <glyph glyph-name="a" unicode="a" 
d="M788 117q0 -8 15 -117h-219q-2 23 -6.5 44.5t-6.5 41.5q-66 -53 -125.5 -79.5t-159.5 -26.5t-158 70.5t-58 168.5q0 185 116.5 297.5t372.5 210.5v66q0 141 -113 141q-78 0 -102.5 -42t-28.5 -114h-229q10 168 108.5 256t260.5 88q333 0 333 -299v-706zM406 168
q81 0 153 102v289q-156 -90 -208 -153t-52 -127t26.5 -87.5t80.5 -23.5z" />
    <glyph glyph-name="b" unicode="b" 
d="M111 0v1479h229v-471q75 61 120 87.5t118 26.5q109 0 171 -77.5t62 -229.5v-528q0 -152 -62.5 -229.5t-159.5 -77.5t-148.5 31.5t-108.5 103.5h-4v-115h-217zM340 225q80 -57 132 -57t81 39t29 139v410q0 148 -44 163t-79 15t-119 -57v-652z" />
    <glyph glyph-name="c" unicode="c" 
d="M98 713q0 409 357 409q273 0 313.5 -154.5t42.5 -242.5h-229v29q0 180 -127 180t-127 -180v-406q0 -180 127 -180t127 180v70h229v-29q0 -409 -356.5 -409t-356.5 409v324z" />
    <glyph glyph-name="d" unicode="d" 
d="M582 0v115h-4q-57 -72 -108.5 -103.5t-149.5 -31.5t-160 77.5t-62 229.5v528q0 152 62.5 229.5t171.5 77.5q72 0 110.5 -22.5t65.5 -44t61 -47.5v471h230v-1479h-217zM328 756v-410q0 -109 31.5 -143.5t80.5 -34.5t129 57v652q-80 57 -129 57t-80.5 -35t-31.5 -143z" />
    <glyph glyph-name="e" unicode="e" 
d="M454.5 1122q356.5 0 356.5 -409v-205h-483v-160q0 -180 127 -180t127 180v25h229q-9 -393 -356 -393q-357 0 -357 409v324q0 409 356.5 409zM582 754q0 180 -127 180t-127 -180v-58h254v58z" />
    <glyph glyph-name="f" unicode="f" horiz-adv-x="569" 
d="M156 1239q0 260 256 260h114v-188h-65q-41 0 -58.5 -16.5t-17.5 -57.5v-135h131v-189h-131v-913h-229v913h-136v189h136v137z" />
    <glyph glyph-name="g" unicode="g" 
d="M430 1122q155 0 254 -118q50 72 85 95t103 23v-190q-10 2 -12 2h-24q-69 0 -111 -35q25 -90 25 -195q0 -222 -82.5 -321.5t-266.5 -99.5h-73q-18 -4 -31.5 -17.5t-13.5 -34.5q0 -37 44 -48t109.5 -14t141 -6t185 -42.5t109.5 -206.5q0 -141 -123.5 -201.5t-322.5 -60.5
q-389 0 -389 176q0 66 45 112t104 60v4q-104 40 -104 139q0 73 58.5 119.5t80.5 59.5q-43 31 -71.5 59.5t-52 89.5t-23.5 210t19.5 226.5t81 146t255.5 68.5zM408 471q31 0 53 10.5t35.5 36t18.5 70.5t5 150t-24 150.5t-90 45.5q-90 0 -102.5 -81t-12.5 -150.5t7 -114.5
t22.5 -70.5t36 -36t51.5 -10.5zM473 -184q115 0 155 19.5t40 62.5t-40 62.5t-155 19.5t-154.5 -19.5t-39.5 -62.5t39.5 -62.5t154.5 -19.5z" />
    <glyph glyph-name="h" unicode="h" 
d="M569 854q0 80 -59 80t-94 -20.5t-76 -49.5v-864h-229v1479h229v-480q83 72 129.5 97.5t137.5 25.5t141.5 -61.5t50.5 -169.5v-891h-230v854z" />
    <glyph glyph-name="i" unicode="i" horiz-adv-x="454" 
d="M113 0v1102h229v-1102h-229zM113 1270v209h229v-209h-229z" />
    <glyph glyph-name="j" unicode="j" horiz-adv-x="454" 
d="M354 -63q0 -285 -266 -285h-88v209h39q86 0 86 86v1153h229v-1163zM125 1270v209h229v-209h-229z" />
    <glyph glyph-name="k" unicode="k" 
d="M340 0h-229v1479h229v-766h4l252 389h246l-240 -348l266 -754h-231l-184 547h-4l-109 -162v-385z" />
    <glyph glyph-name="l" unicode="l" horiz-adv-x="454" 
d="M113 0v1479h229v-1479h-229z" />
    <glyph glyph-name="m" unicode="m" horiz-adv-x="1366" 
d="M1024 854q0 80 -83 80q-36 0 -70.5 -20.5t-73.5 -49.5v-864h-230v854q0 80 -81 80q-36 0 -70.5 -20.5t-75.5 -49.5v-864h-229v1102h217v-111q37 31 65.5 55.5t72.5 50t123 25.5t117.5 -31.5t75.5 -99.5q118 112 172 121.5t84 9.5q109 0 162 -61.5t53 -169.5v-891h-229
v854z" />
    <glyph glyph-name="n" unicode="n" 
d="M569 854q0 80 -59 80t-94 -20.5t-76 -49.5v-864h-229v1102h217v-111q37 31 65.5 55.5t75.5 50t138 25.5t141.5 -61.5t50.5 -169.5v-891h-230v854z" />
    <glyph glyph-name="o" unicode="o" 
d="M454.5 -20q-356.5 0 -356.5 409v324q0 409 356.5 409t356.5 -409v-324q0 -409 -356.5 -409zM328 348q0 -180 127 -180t127 180v406q0 180 -127 180t-127 -180v-406z" />
    <glyph glyph-name="p" unicode="p" 
d="M328 1102v-115h4q57 72 108.5 103.5t149.5 31.5t159.5 -77.5t61.5 -229.5v-528q0 -152 -62.5 -229.5t-170.5 -77.5q-73 0 -122 29t-116 85v-442h-229v1450h217zM340 225q80 -57 132 -57t81 39t29 139v410q0 148 -44 163t-79 15t-119 -57v-652z" />
    <glyph glyph-name="q" unicode="q" 
d="M799 1102v-1450h-230v442q-113 -93 -156.5 -103.5t-80.5 -10.5q-109 0 -171.5 77.5t-62.5 229.5v528q0 152 62 229.5t160 77.5t149 -31.5t109 -103.5h4v115h217zM328 756v-410q0 -109 31.5 -143.5t80.5 -34.5t129 57v652q-80 57 -129 57t-80.5 -35t-31.5 -143z" />
    <glyph glyph-name="r" unicode="r" horiz-adv-x="681" 
d="M340 758v-758h-229v1102h219v-129h4q41 72 109.5 110.5t150.5 38.5h47v-239q-85 22 -146 22q-60 0 -107.5 -37t-47.5 -110z" />
    <glyph glyph-name="s" unicode="s" horiz-adv-x="796" 
d="M397 934q-45 0 -72.5 -22.5t-27.5 -65.5t31.5 -79t80 -72t103.5 -75.5t135 -119.5t80 -223t-87 -220t-236 -77q-150 0 -236 80.5t-113 226.5l201 55q10 -70 42 -122t110 -52q45 0 73.5 24.5t28.5 71.5t-32 87t-80 77t-183 132.5t-135 266.5q0 130 88.5 212.5t221.5 82.5
q132 0 219 -82t114 -211l-195 -32q-25 137 -131 137z" />
    <glyph glyph-name="t" unicode="t" horiz-adv-x="569" 
d="M147 227v686h-127v189h127v297h230v-297h153v-189h-153v-634q0 -90 78 -91h75v-196q-46 -12 -114 -12q-269 0 -269 247z" />
    <glyph glyph-name="u" unicode="u" 
d="M340 248q0 -80 59.5 -80t94 20.5t75.5 49.5v864h230v-1102h-217v111q-37 -31 -66 -55.5t-76 -50t-138 -25.5t-141 61t-50 170v891h229v-854z" />
    <glyph glyph-name="v" unicode="v" horiz-adv-x="796" 
d="M543 1102h233l-266 -1102h-223l-267 1102h234l141 -737h4z" />
    <glyph glyph-name="w" unicode="w" horiz-adv-x="1138" 
d="M483 1100h170l123 -686h4l125 688h221l-254 -1102h-184l-125 696h-4l-149 -696h-185l-213 1102h221l101 -688h4z" />
    <glyph glyph-name="x" unicode="x" horiz-adv-x="796" 
d="M270 584l-227 518h238l116 -307l123 307h238l-238 -514l250 -588h-238l-133 373h-4l-133 -373h-237z" />
    <glyph glyph-name="y" unicode="y" horiz-adv-x="796" 
d="M78 -346v188h55q86 0 119 45t33 111t-25 168l-240 936h234l147 -705h5l139 705h231l-289 -1184q-35 -148 -109.5 -206t-203.5 -58h-96z" />
    <glyph glyph-name="z" unicode="z" horiz-adv-x="796" 
d="M90 913v189h645v-189l-428 -725h428v-188h-674v188l420 725h-391z" />
    <glyph glyph-name="braceleft" unicode="{" horiz-adv-x="569" 
d="M311 25q0 -103 74 -103h168v-98h-225q-123 0 -168 49t-45 147v422q0 86 -35 125t-80 39v119q45 0 80 39t35 125v414q0 98 45 147t168 49h225v-98h-168q-74 0 -74 -103v-397q0 -109 -51.5 -168t-103.5 -65v-6q95 -21 125 -97t30 -143v-397z" />
    <glyph glyph-name="bar" unicode="|" horiz-adv-x="454" 
d="M127 1499h201v-1519h-201v1519z" />
    <glyph glyph-name="braceright" unicode="}" horiz-adv-x="569" 
d="M258 1298q0 103 -74 103h-168v98h226q123 0 168 -49t45 -147v-422q0 -86 34.5 -125t79.5 -39v-119q-45 0 -79.5 -39t-34.5 -125v-414q0 -98 -45 -147t-168 -49h-226v98h168q74 0 74 103v397q0 109 52 168t104 65v7q-52 6 -104 64t-52 175v397z" />
    <glyph glyph-name="asciitilde" unicode="~" horiz-adv-x="1228" 
d="M245 640.5q61 45.5 145 45.5t188 -45t153 -65.5t107 -20.5t99.5 42t76.5 89l90 -176q-29 -27 -98 -93.5t-166 -66.5t-211 66t-242 65q-68 0 -107.5 -42t-64.5 -89l-90 176q59 69 120 114.5z" />
    <glyph glyph-name="uni00A0" unicode="&#xa0;" horiz-adv-x="454" 
 />
    <glyph glyph-name="exclamdown" unicode="&#xa1;" horiz-adv-x="569" 
d="M414 -377h-258l45 1045h168zM406 1102v-242h-242v242h242z" />
    <glyph glyph-name="cent" unicode="&#xa2;" 
d="M457 1143q33 0 65 -4l72 262h151l-83 -307q155 -90 159 -349h-213v29q0 78 -30 121l-187 -690q25 -17 79 -17t93 42t39 139v69h229v-28q0 -299 -135.5 -354.5t-213.5 -55.5t-113 8l-68 -246h-154l82 297q-151 94 -151 351v323q0 410 379 410zM307 369q0 -24 12 -66h5
l165 649q-10 2 -32 2q-66 0 -108 -42t-42 -138v-405z" />
    <glyph glyph-name="sterling" unicode="&#xa3;" 
d="M554 -20q-136 0 -257 98q-127 -89 -225 -98v219q95 31 126 127t31 327h-157v172h129q-58 237 -58 336q0 160 82 249t253 89t252 -100.5t81 -313.5h-209q-8 141 -28.5 173t-43 42.5t-55.5 10.5q-102 0 -102 -131q0 -90 21.5 -173t37.5 -182h203v-172h-184
q-5 -170 -17 -256t-55 -159q67 -50 143 -50q105 0 105 220h204v-121q0 -145 -70.5 -226t-206.5 -81z" />
    <glyph glyph-name="currency" unicode="&#xa4;" 
d="M37 739.5q0 131.5 76 237.5l-97 94l103 109l96 -99q104 74 238 74q135 0 239 -74l99 99l102 -109l-96 -94q75 -105 75 -236t-75 -239l96 -94l-102 -109l-99 98q-102 -73 -238 -73t-239 73l-96 -98l-103 109l97 94q-76 106 -76 237.5zM225 739.5q0 -51.5 18.5 -95.5
t49.5 -75.5t73 -50t89 -18.5t89 18.5t72.5 50t49 75.5t18.5 95.5t-18.5 94.5t-49 75.5t-72.5 51t-89 18.5t-89 -18.5t-73 -51t-49.5 -75.5t-18.5 -94.5z" />
    <glyph glyph-name="yen" unicode="&#xa5;" 
d="M856 958v-172h-248l-55 -163h303v-172h-303v-451h-197v451h-303v172h303l-55 163h-248v172h178l-186 521h205l207 -613h4l198 613h205l-186 -521h178z" />
    <glyph glyph-name="brokenbar" unicode="&#xa6;" horiz-adv-x="454" 
d="M328 -20h-201v626h201v-626zM328 872h-201v627h201v-627z" />
    <glyph glyph-name="section" unicode="&#xa7;" horiz-adv-x="1024" 
d="M231 1235q0 123 73 193.5t222 70.5q94 0 172 -48t125 -116l-141 -102q-31 35 -67.5 70.5t-88.5 35.5q-106 0 -106 -94q0 -45 37 -92t92 -98t212 -188.5t157 -283.5q0 -110 -57.5 -178.5t-164.5 -72.5q47 -47 75 -95.5t28 -117.5q0 -129 -77 -206t-192 -77t-193.5 45
t-156.5 121l150 117q25 -47 62.5 -85t99.5 -38q118 0 118 102q0 74 -93 166t-252 236.5t-159 294.5q0 110 63.5 169.5t164.5 69.5q-103 78 -103 201zM295 826q0 -26 19.5 -57.5t66.5 -91t132 -137t124 -77.5t65.5 27.5t26.5 51.5t-19.5 56.5t-68.5 95.5t-132 136t-125 73
t-65.5 -25.5t-23.5 -51.5z" />
    <glyph glyph-name="dieresis" unicode="&#xa8;" horiz-adv-x="454" 
d="M279 1257v222h221v-222h-221zM176 1479v-222h-221v222h221z" />
    <glyph glyph-name="copyright" unicode="&#xa9;" horiz-adv-x="1638" 
d="M819.5 -20q-153.5 0 -295 53t-249 152.5t-171 239.5t-63.5 313t63.5 313.5t171 240t249 153.5t295 54t294.5 -54t248.5 -153.5t171 -240t63.5 -313.5t-63.5 -313t-171 -239.5t-248.5 -152.5t-294.5 -53zM1229.5 1170q-167.5 169 -412.5 169q-244 0 -409.5 -169.5
t-165.5 -429.5t165 -430.5t410 -170.5t412.5 169.5t167.5 431t-167.5 430.5zM832 291q-82 0 -162 34.5t-168 128.5t-88 292t116.5 324t313.5 126q144 0 244.5 -82.5t123.5 -232.5h-159q-16 78 -73.5 116.5t-135.5 38.5q-117 0 -177.5 -79.5t-60.5 -207.5t68.5 -213
t163.5 -85q192 0 215 161h166q-23 -144 -127.5 -232.5t-259.5 -88.5z" />
    <glyph glyph-name="ordfeminine" unicode="&#xaa;" horiz-adv-x="544" 
d="M193 811q-89 0 -126.5 42t-37.5 108q0 109 77.5 176t229.5 125v38q0 41 -16.5 58.5t-57.5 17.5t-56.5 -23.5t-17.5 -60.5h-159q6 100 72.5 153.5t177.5 53.5q217 0 217 -180v-426q0 -28 10 -70h-144q0 10 -3 20.5t-5 22.5q-72 -55 -161 -55zM188 987q0 -53 60 -53
q31 0 54.5 18.5t33.5 42.5v150q-92 -49 -120 -81.5t-28 -76.5z" />
    <glyph glyph-name="guillemotleft" unicode="&#xab;" horiz-adv-x="1024" 
d="M561 236h-196l-236 317l236 313h202l-239 -315zM903 236h-196l-236 317l236 313h202l-239 -315z" />
    <glyph glyph-name="logicalnot" unicode="&#xac;" horiz-adv-x="1228" 
d="M932 631h-836v200h1037v-628h-201v428z" />
    <glyph glyph-name="uni00AD" unicode="&#xad;" horiz-adv-x="681" 
d="M90 457v188h502v-188h-502z" />
    <glyph glyph-name="registered" unicode="&#xae;" horiz-adv-x="1638" 
d="M819.5 -20q-153.5 0 -295 53t-249 152.5t-171 239.5t-63.5 313t63.5 313.5t171 240t249 153.5t295 54t294.5 -54t248.5 -153.5t171 -240t63.5 -313.5t-63.5 -313t-171 -239.5t-248.5 -152.5t-294.5 -53zM1229.5 1170q-167.5 169 -412.5 169q-244 0 -409.5 -169.5
t-165.5 -429.5t165 -430.5t410 -170.5t412.5 169.5t167.5 431t-167.5 430.5zM684 315h-168v850h322q160 0 244.5 -56t84.5 -206t-81.5 -181.5t-122.5 -35.5l204 -371h-186l-190 363h-107v-363zM684 809h145q92 0 129 29.5t37 89t-41 83t-133 23.5h-137v-225z" />
    <glyph glyph-name="macron" unicode="&#xaf;" horiz-adv-x="454" 
d="M-74 1436h602v-131h-602v131z" />
    <glyph glyph-name="degree" unicode="&#xb0;" horiz-adv-x="819" 
d="M409.5 913q-61.5 0 -115.5 22.5t-94 62.5t-62.5 93.5t-22.5 115t22.5 114.5t62.5 93t94 62.5t115.5 22.5t116 -22.5t94 -62.5t62.5 -93t23 -114.5t-23 -115t-62.5 -93.5t-94 -62.5t-116 -22.5zM409.5 1028q73.5 0 121 52.5t47.5 126t-47.5 125.5t-121 52t-120.5 -52
t-47 -125.5t47 -126t120.5 -52.5z" />
    <glyph glyph-name="plusminus" unicode="&#xb1;" horiz-adv-x="1228" 
d="M514 1036h201v-280h418v-201h-418v-281h-201v281h-418v201h418v280zM96 201h1037v-201h-1037v201z" />
    <glyph glyph-name="twosuperior" unicode="&#xb2;" horiz-adv-x="544" 
d="M29 598v166q154 174 226.5 295t72.5 219q0 57 -58 57q-29 0 -47 -20.5t-18 -48.5v-39h-176v41q0 97 73 164t181 67t170.5 -58.5t62.5 -125.5q0 -138 -52.5 -254.5t-211.5 -298.5h258v-164h-481z" />
    <glyph glyph-name="threesuperior" unicode="&#xb3;" horiz-adv-x="544" 
d="M268 586q-227 0 -227 219v51h176v-43q-1 -63 55 -63t56 79v52q0 72 -29 91t-88 19v152q57 0 85 21.5t28 99.5t-52 79q-52 0 -53 -57v-35h-172v41q0 92 61.5 149.5t172.5 57.5t171 -66t60 -153q0 -86 -18.5 -132t-77.5 -79q68 -35 88 -83t20 -160t-60.5 -176t-195.5 -64z
" />
    <glyph glyph-name="acute" unicode="&#xb4;" horiz-adv-x="454" 
d="M252 1233h-170l162 295h276z" />
    <glyph glyph-name="mu" unicode="&#xb5;" 
d="M340 248q0 -80 59.5 -80t94 20.5t75.5 49.5v864h230v-1102h-217v111q-110 -96 -156.5 -111.5t-85.5 -19.5v-328h-229v1450h229v-854z" />
    <glyph glyph-name="paragraph" unicode="&#xb6;" horiz-adv-x="1024" 
d="M12 1094q0 385 426 385h590v-131h-115v-1512h-168v1512h-178v-1512h-168v885q-179 0 -283 105.5t-104 267.5z" />
    <glyph glyph-name="periodcentered" unicode="&#xb7;" horiz-adv-x="454" 
d="M90 517q0 58 39 98t97 40t98 -40t41 -98q0 -58 -40 -97q-41 -39 -99 -39t-97 39t-39 97z" />
    <glyph glyph-name="cedilla" unicode="&#xb8;" horiz-adv-x="454" 
d="M366 -150q72 -50 72 -134t-75 -141q-75 -58 -181 -58t-200 47l34 102q68 -33 128 -34q59 -1 93 24q33 26 33 58q-1 55 -57 69q-57 14 -113 -8l-45 37l140 188h98l-84 -123q20 4 68 2q49 -1 89 -29z" />
    <glyph glyph-name="onesuperior" unicode="&#xb9;" horiz-adv-x="544" 
d="M389 1499v-901h-196v686h-107v98q121 47 203 117h100z" />
    <glyph glyph-name="ordmasculine" unicode="&#xba;" horiz-adv-x="544" 
d="M41 1253q0 109 52 177.5t180 68.5t179.5 -67.5t51.5 -178.5v-194q0 -111 -51.5 -179.5t-179.5 -68.5t-180 69.5t-52 178.5v194zM336 1268q0 100 -63.5 100t-63.5 -100v-226q0 -100 63.5 -100t63.5 100v226z" />
    <glyph glyph-name="guillemotright" unicode="&#xbb;" horiz-adv-x="1024" 
d="M696 551l-239 315h202l236 -313l-236 -317h-196zM354 551l-239 315h202l236 -313l-236 -317h-196z" />
    <glyph glyph-name="onequarter" unicode="&#xbc;" horiz-adv-x="1363" 
d="M1049 205h-291v164l264 518h195v-527h77v-155h-77v-205h-168v205zM152 -20l839 1519h187l-840 -1519h-186zM406 1497v-899h-197v686h-107v98q117 45 203 115h101zM1049 360v273h-5l-126 -273h131z" />
    <glyph glyph-name="onehalf" unicode="&#xbd;" horiz-adv-x="1363" 
d="M135 -20l840 1519h186l-839 -1519h-187zM815 0v166q154 174 226.5 295t72.5 219q0 57 -57 57q-29 0 -47.5 -20.5t-18.5 -48.5v-39h-176v41q0 98 74 164.5t180 66.5t170 -58t64 -126q0 -135 -51.5 -251.5t-213.5 -301.5h258v-164h-481zM401 1499v-901h-196v686h-107v98
q121 47 203 117h100z" />
    <glyph glyph-name="threequarters" unicode="&#xbe;" horiz-adv-x="1363" 
d="M1049 205h-291v164l264 518h195v-527h77v-155h-77v-205h-168v205zM190 -20l840 1519h187l-840 -1519h-187zM289 586q-228 0 -228 219v51h177v-43q0 -63 55 -63q29 0 42 18t13 61v52q0 72 -28.5 91t-88.5 19v152q57 0 85 21.5t28 99.5t-52 79q-52 0 -52 -57v-35h-172v41
q0 92 61 149.5t172 57.5t171 -65t60 -153q0 -87 -18 -133t-78 -79q68 -35 88.5 -83t20.5 -160t-60.5 -176t-195.5 -64zM1049 360v273h-5l-126 -273h131z" />
    <glyph glyph-name="questiondown" unicode="&#xbf;" horiz-adv-x="796" 
d="M386 -209q109 0 149 156l196 -74q-47 -135 -135 -202.5t-220 -67.5t-221 79t-89 187t28.5 167.5t51 92.5t65 89.5t75.5 137.5t33 201v111h197v-172q0 -164 -73.5 -296t-106.5 -195t-33 -111t23.5 -75.5t59.5 -27.5zM543 1102v-242h-242v242h242z" />
    <glyph glyph-name="Agrave" unicode="&#xc0;" 
d="M270 0h-245l272 1479h315l273 -1479h-246l-45 328h-279zM352 549h205l-100 635h-4zM162 1849h276l162 -295h-170z" />
    <glyph glyph-name="Aacute" unicode="&#xc1;" 
d="M270 0h-245l272 1479h315l273 -1479h-246l-45 328h-279zM352 549h205l-100 635h-4zM479 1554h-170l162 295h277z" />
    <glyph glyph-name="Acircumflex" unicode="&#xc2;" 
d="M270 0h-245l272 1479h315l273 -1479h-246l-45 328h-279zM352 549h205l-100 635h-4zM342 1849h225l197 -295h-189l-120 183l-121 -183h-189z" />
    <glyph glyph-name="Atilde" unicode="&#xc3;" 
d="M270 0h-245l272 1479h315l273 -1479h-246l-45 328h-279zM352 549h205l-100 635h-4zM578 1583q-59 0 -133 40t-122 40q-49 0 -67 -23t-20 -67h-115q45 242 211 242q47 -1 105 -27q59 -26 89 -40t69 -13q40 1 58 23t21 67h114q-45 -242 -210 -242z" />
    <glyph glyph-name="Adieresis" unicode="&#xc4;" 
d="M270 0h-245l272 1479h315l273 -1479h-246l-45 328h-279zM352 549h205l-100 635h-4zM506 1579v221h221v-221h-221zM403 1800v-221h-221v221h221z" />
    <glyph glyph-name="Aring" unicode="&#xc5;" 
d="M270 0h-245l272 1479h315l273 -1479h-246l-45 328h-279zM352 549h205l-100 635h-4zM307 1913q61 61 149 61t147 -60t60 -149q1 -88 -60 -147q-61 -60 -147 -61t-148 61t-62 148t61 147zM348 1765q0 -45 31 -75t76 -31q45 0 75 31q30 32 31 76q0 44 -31 75q-32 31 -76 31
t-75 -31t-31 -76z" />
    <glyph glyph-name="AE" unicode="&#xc6;" horiz-adv-x="1478" 
d="M1372 1479v-222h-434v-380h336v-222h-336v-434h463v-221h-717v348h-295l-106 -348h-258l477 1479h870zM684 569v725h-4l-221 -725h225z" />
    <glyph glyph-name="Ccedilla" unicode="&#xc7;" horiz-adv-x="1024" 
d="M635 1100q1 178 -137 178q-64 0 -92.5 -40t-28.5 -124v-749q0 -84 28.5 -124t102.5 -40t100.5 39t26.5 110v178h254v-170q0 -150 -82.5 -254t-241.5 -120l-71 -107q50 10 139.5 -17t89.5 -122q0 -106 -74.5 -163.5t-164.5 -57.5q-89 0 -142 18.5t-76 28.5l35 102
q73 -35 129 -35q57 0 91 25.5t34 57.5q0 57 -57 69.5t-113 -8.5l-45 37l125 170q-167 11 -254.5 116t-87.5 260v762q0 167 99 273t287 106t284 -116.5t96 -288.5v-109h-254v115z" />
    <glyph glyph-name="Egrave" unicode="&#xc8;" 
d="M123 0v1479h680v-222h-426v-380h328v-222h-328v-434h454v-221h-708zM186 1849h277l162 -295h-170z" />
    <glyph glyph-name="Eacute" unicode="&#xc9;" 
d="M123 0v1479h680v-222h-426v-380h328v-222h-328v-434h454v-221h-708zM504 1556h-170l162 295h276z" />
    <glyph glyph-name="Ecircumflex" unicode="&#xca;" 
d="M123 0v1479h680v-222h-426v-380h328v-222h-328v-434h454v-221h-708zM367 1849h225l196 -295h-188l-121 183l-121 -183h-188z" />
    <glyph glyph-name="Edieresis" unicode="&#xcb;" 
d="M123 0v1479h680v-222h-426v-380h328v-222h-328v-434h454v-221h-708zM530 1579v221h222v-221h-222zM428 1800v-221h-221v221h221z" />
    <glyph glyph-name="Igrave" unicode="&#xcc;" horiz-adv-x="569" 
d="M158 0v1479h254v-1479h-254zM-8 1851h276l162 -295h-170z" />
    <glyph glyph-name="Iacute" unicode="&#xcd;" horiz-adv-x="569" 
d="M158 0v1479h254v-1479h-254zM307 1554h-170l162 295h276z" />
    <glyph glyph-name="Icircumflex" unicode="&#xce;" horiz-adv-x="569" 
d="M158 0v1479h254v-1479h-254zM172 1849h225l197 -295h-188l-121 183l-121 -183h-189z" />
    <glyph glyph-name="Idieresis" unicode="&#xcf;" horiz-adv-x="569" 
d="M158 0v1479h254v-1479h-254zM336 1581v221h221v-221h-221zM233 1802v-221h-221v221h221z" />
    <glyph glyph-name="Eth" unicode="&#xd0;" horiz-adv-x="1024" 
d="M901 446q0 -446 -401 -446h-377v655h-82v222h82v602h377q199 0 300 -108.5t101 -338.5v-586zM528 655h-151v-446h88q102 0 142 45t40 162v647q0 117 -40 162t-142 45h-88v-393h151v-222z" />
    <glyph glyph-name="Ntilde" unicode="&#xd1;" horiz-adv-x="1024" 
d="M123 0v1479h235l310 -846h4v846h229v-1479h-221l-324 924h-4v-924h-229zM389 1815q49 -1 107 -27q57 -26 87 -40q29 -14 69 -13q40 0 59 22q18 23 20 68h115q-30 -164 -124 -220q-36 -22 -92 -22t-130 40t-121 40t-65 -23t-21 -67h-115q45 242 211 242z" />
    <glyph glyph-name="Ograve" unicode="&#xd2;" horiz-adv-x="1024" 
d="M123 1120q0 168 99 274q99 105 289 105q189 0 291 -107q101 -107 99 -272v-762q0 -260 -216 -349q-73 -29 -173 -29q-191 1 -291 107t-98 271v762zM377 365q0 -84 29 -124q28 -40 106 -40t106 40t29 124v749q0 84 -29 124q-28 40 -106 40t-106 -40t-29 -124v-749z
M219 1851h277l161 -295h-170z" />
    <glyph glyph-name="Oacute" unicode="&#xd3;" horiz-adv-x="1024" 
d="M123 1120q0 168 99 274q99 105 289 105q189 0 291 -107q101 -107 99 -272v-762q0 -260 -216 -349q-73 -29 -173 -29q-191 1 -291 107t-98 271v762zM377 365q0 -84 29 -124q28 -40 106 -40t106 40t29 124v749q0 84 -29 124q-28 40 -106 40t-106 -40t-29 -124v-749z
M535 1554h-170l161 295h277z" />
    <glyph glyph-name="Ocircumflex" unicode="&#xd4;" horiz-adv-x="1024" 
d="M123 1120q0 168 99 274q99 105 289 105q189 0 291 -107q101 -107 99 -272v-762q0 -260 -216 -349q-73 -29 -173 -29q-191 1 -291 107t-98 271v762zM377 365q0 -84 29 -124q28 -40 106 -40t106 40t29 124v749q0 84 -29 124q-28 40 -106 40t-106 -40t-29 -124v-749z
M399 1849h226l196 -295h-188l-121 183l-121 -183h-188z" />
    <glyph glyph-name="Otilde" unicode="&#xd5;" horiz-adv-x="1024" 
d="M123 1120q0 168 99 274q99 105 289 105q189 0 291 -107q101 -107 99 -272v-762q0 -260 -216 -349q-73 -29 -173 -29q-191 1 -291 107t-98 271v762zM377 365q0 -84 29 -124q28 -40 106 -40t106 40t29 124v749q0 84 -29 124q-28 40 -106 40t-106 -40t-29 -124v-749z
M389 1815q49 -1 107 -27q57 -26 87 -40q29 -14 69 -13q40 0 59 22q18 23 20 68h115q-30 -164 -124 -220q-36 -22 -92 -22t-130 40t-121 40t-65 -23t-21 -67h-115q45 242 211 242z" />
    <glyph glyph-name="Odieresis" unicode="&#xd6;" horiz-adv-x="1024" 
d="M123 1120q0 168 99 274q99 105 289 105q189 0 291 -107q101 -107 99 -272v-762q0 -260 -216 -349q-73 -29 -173 -29q-191 1 -291 107t-98 271v762zM377 365q0 -84 29 -124q28 -40 106 -40t106 40t29 124v749q0 84 -29 124q-28 40 -106 40t-106 -40t-29 -124v-749z
M563 1579v221h221v-221h-221zM461 1800v-221h-221v221h221z" />
    <glyph glyph-name="multiply" unicode="&#xd7;" horiz-adv-x="1228" 
d="M758 518l375 -375l-142 -143l-377 377l-376 -377l-142 143l377 375l-377 377l142 141l376 -377l377 377l142 -141z" />
    <glyph glyph-name="Oslash" unicode="&#xd8;" horiz-adv-x="1024" 
d="M123 358v762q0 167 99 273t290 106q125 0 211 -49l78 197h166l-121 -312q55 -90 55 -215v-762q0 -167 -99.5 -272.5t-289.5 -105.5q-104 0 -184 34l-103 -260h-168l142 361q-76 95 -76 243zM512 1278q-78 0 -106.5 -40t-28.5 -124v-588h4l258 666q-20 86 -127 86z
M509 201q81 0 109.5 40t28.5 124v503h-4l-240 -620q25 -47 106 -47z" />
    <glyph glyph-name="Ugrave" unicode="&#xd9;" horiz-adv-x="1024" 
d="M123 1479h254v-1117q0 -162 135 -161q135 0 135 161v1117h254v-1106q0 -193 -103 -293q-104 -100 -286 -100t-286 100q-103 100 -103 293v1106zM219 1851h277l161 -295h-170z" />
    <glyph glyph-name="Uacute" unicode="&#xda;" horiz-adv-x="1024" 
d="M123 1479h254v-1117q0 -162 135 -161q135 0 135 161v1117h254v-1106q0 -193 -103 -293q-104 -100 -286 -100t-286 100q-103 100 -103 293v1106zM537 1556h-170l161 295h277z" />
    <glyph glyph-name="Ucircumflex" unicode="&#xdb;" horiz-adv-x="1024" 
d="M123 1479h254v-1117q0 -162 135 -161q135 0 135 161v1117h254v-1106q0 -193 -103 -293q-104 -100 -286 -100t-286 100q-103 100 -103 293v1106zM399 1849h226l196 -295h-188l-121 183l-121 -183h-188z" />
    <glyph glyph-name="Udieresis" unicode="&#xdc;" horiz-adv-x="1024" 
d="M123 1479h254v-1117q0 -162 135 -161q135 0 135 161v1117h254v-1106q0 -193 -103 -293q-104 -100 -286 -100t-286 100q-103 100 -103 293v1106zM563 1579v221h221v-221h-221zM461 1800v-221h-221v221h221z" />
    <glyph glyph-name="Yacute" unicode="&#xdd;" 
d="M582 0h-254v614l-308 865h259l178 -564h4l170 564h258l-307 -865v-614zM477 1554h-170l162 295h276z" />
    <glyph glyph-name="Thorn" unicode="&#xde;" horiz-adv-x="1024" 
d="M377 1192h110q236 0 347.5 -100.5t111.5 -335.5t-110 -336t-349 -101h-110v-319h-254v1479h254v-287zM377 528h98q126 0 171.5 47.5t45.5 180.5t-46.5 180t-170.5 47h-98v-455z" />
    <glyph glyph-name="germandbls" unicode="&#xdf;" 
d="M635 809q188 -59 188 -363q0 -265 -58.5 -355.5t-178.5 -90.5h-135v195q94 -23 114.5 19t20.5 112v206q0 160 -127 160v189q59 8 77.5 37t18.5 110v143q0 72 -26.5 102t-82.5 30t-81 -36t-25 -116v-1151h-229v1106q0 193 85 289t240 96q191 0 269.5 -106.5t78.5 -297.5
q0 -123 -34.5 -193.5t-114.5 -80.5v-4z" />
    <glyph glyph-name="agrave" unicode="&#xe0;" 
d="M788 117q0 -12 15 -117h-219q-2 22 -6 44t-7 42q-66 -53 -125 -80t-143 -26q-117 0 -175 70t-58 169q0 185 116 298t373 210v66q0 141 -113 141q-78 0 -102 -42t-29 -114h-229q10 168 108 256t261 88q333 0 333 -299v-706zM299 268q0 -102 107 -100q82 0 153 102v289
q-155 -89 -196 -139q-42 -49 -53 -82t-11 -70zM162 1528h276l162 -295h-170z" />
    <glyph glyph-name="aacute" unicode="&#xe1;" 
d="M788 117q0 -12 15 -117h-219q-2 22 -6 44t-7 42q-66 -53 -125 -80t-143 -26q-117 0 -175 70t-58 169q0 185 116 298t373 210v66q0 141 -113 141q-78 0 -102 -42t-29 -114h-229q10 168 108 256t261 88q333 0 333 -299v-706zM299 268q0 -102 107 -100q82 0 153 102v289
q-155 -89 -196 -139q-42 -49 -53 -82t-11 -70zM479 1233h-170l162 295h277z" />
    <glyph glyph-name="acircumflex" unicode="&#xe2;" 
d="M788 117q0 -12 15 -117h-219q-2 22 -6 44t-7 42q-66 -53 -125 -80t-143 -26q-117 0 -175 70t-58 169q0 185 116 298t373 210v66q0 141 -113 141q-78 0 -102 -42t-29 -114h-229q10 168 108 256t261 88q333 0 333 -299v-706zM299 268q0 -102 107 -100q82 0 153 102v289
q-155 -89 -196 -139q-42 -49 -53 -82t-11 -70zM342 1528h225l197 -295h-189l-120 182l-121 -182h-189z" />
    <glyph glyph-name="atilde" unicode="&#xe3;" 
d="M788 117q0 -12 15 -117h-219q-2 22 -6 44t-7 42q-66 -53 -125 -80t-143 -26q-117 0 -175 70t-58 169q0 185 116 298t373 210v66q0 141 -113 141q-78 0 -102 -42t-29 -114h-229q10 168 108 256t261 88q333 0 333 -299v-706zM299 268q0 -102 107 -100q82 0 153 102v289
q-155 -89 -196 -139q-42 -49 -53 -82t-11 -70zM332 1491q52 -1 108 -27t86 -40t69 -13q73 0 79 90h114q-20 -106 -54 -153q-34 -46 -70 -68t-79 -20q-64 1 -140 40t-123 39t-66 -22q-18 -23 -20 -68h-115q45 242 211 242z" />
    <glyph glyph-name="adieresis" unicode="&#xe4;" 
d="M788 117q0 -12 15 -117h-219q-2 22 -6 44t-7 42q-66 -53 -125 -80t-143 -26q-117 0 -175 70t-58 169q0 185 116 298t373 210v66q0 141 -113 141q-78 0 -102 -42t-29 -114h-229q10 168 108 256t261 88q333 0 333 -299v-706zM299 268q0 -102 107 -100q82 0 153 102v289
q-155 -89 -196 -139q-42 -49 -53 -82t-11 -70zM506 1257v222h221v-222h-221zM403 1479v-222h-221v222h221z" />
    <glyph glyph-name="aring" unicode="&#xe5;" 
d="M788 117q0 -12 15 -117h-219q-2 22 -6 44t-7 42q-66 -53 -125 -80t-143 -26q-117 0 -175 70t-58 169q0 185 116 298t373 210v66q0 141 -113 141q-78 0 -102 -42t-29 -114h-229q10 168 108 256t261 88q333 0 333 -299v-706zM299 268q0 -102 107 -100q82 0 153 102v289
q-155 -89 -196 -139q-42 -49 -53 -82t-11 -70zM246 1443q0 88 60 147t149 60q88 1 147 -60q60 -61 61 -147q1 -87 -61 -149t-148 -61q-86 0 -147 61t-61 149zM348 1442q0 -45 31 -76t76 -31t75 31t31 76q0 45 -31 76q-32 30 -76 30t-75 -30t-31 -76z" />
    <glyph glyph-name="ae" unicode="&#xe6;" horiz-adv-x="1366" 
d="M930 1122q338 0 338 -409v-205h-482v-160q0 -180 126 -180t126 180v25h230q-9 -393 -357 -393q-194 0 -278 143q-161 -143 -300 -143q-140 0 -201.5 70.5t-61.5 168.5q0 185 117 298t370 210v66q0 141 -111 141q-78 0 -102.5 -42t-28.5 -114h-229q10 168 104.5 256
t231.5 88q178 0 264 -102q79 102 244 102zM406 168q79 0 151 102v289q-152 -88 -205 -152t-53 -128t26.5 -87.5t80.5 -23.5zM1038 754q0 180 -126 180t-126 -180v-58h252v58z" />
    <glyph glyph-name="ccedilla" unicode="&#xe7;" 
d="M373 -369q57 0 91 25.5t34 57.5q0 57 -58 70t-112 -9l-45 37l125 170q-310 22 -310 407v324q0 409 357 409q273 0 313.5 -154.5t42.5 -242.5h-229v29q0 180 -127 180t-127 -180v-406q0 -180 127 -180t127 180v70h229v-29q0 -170 -68.5 -279.5t-234.5 -125.5l-72 -107
q49 10 139.5 -16.5t90.5 -122.5q0 -106 -74.5 -163.5t-176.5 -57.5t-206 47l35 102q72 -35 129 -35z" />
    <glyph glyph-name="egrave" unicode="&#xe8;" 
d="M455 168q127 0 127 180v25h229q-6 -284 -194 -365q-67 -28 -163 -28q-186 1 -270 106t-86 303v324q0 296 191 380q68 29 166 29q356 -2 356 -409v-205h-483v-160q0 -180 127 -180zM582 754q0 180 -128 180t-126 -180v-58h254v58zM162 1528h276l162 -295h-170z" />
    <glyph glyph-name="eacute" unicode="&#xe9;" 
d="M455 168q127 0 127 180v25h229q-6 -284 -194 -365q-67 -28 -163 -28q-186 1 -270 106t-86 303v324q0 296 191 380q68 29 166 29q356 -2 356 -409v-205h-483v-160q0 -180 127 -180zM582 754q0 180 -128 180t-126 -180v-58h254v58zM479 1233h-170l162 295h277z" />
    <glyph glyph-name="ecircumflex" unicode="&#xea;" 
d="M455 168q127 0 127 180v25h229q-6 -284 -194 -365q-67 -28 -163 -28q-186 1 -270 106t-86 303v324q0 296 191 380q68 29 166 29q356 -2 356 -409v-205h-483v-160q0 -180 127 -180zM582 754q0 180 -128 180t-126 -180v-58h254v58zM342 1528h225l197 -295h-189l-120 182
l-121 -182h-189z" />
    <glyph glyph-name="edieresis" unicode="&#xeb;" 
d="M455 168q127 0 127 180v25h229q-6 -284 -194 -365q-67 -28 -163 -28q-186 1 -270 106t-86 303v324q0 296 191 380q68 29 166 29q356 -2 356 -409v-205h-483v-160q0 -180 127 -180zM582 754q0 180 -128 180t-126 -180v-58h254v58zM506 1257v222h221v-222h-221zM403 1479
v-222h-221v222h221z" />
    <glyph glyph-name="igrave" unicode="&#xec;" horiz-adv-x="454" 
d="M113 0v1102h229v-1102h-229zM-66 1528h277l162 -295h-170z" />
    <glyph glyph-name="iacute" unicode="&#xed;" horiz-adv-x="454" 
d="M113 0v1102h229v-1102h-229zM252 1233h-170l162 295h276z" />
    <glyph glyph-name="icircumflex" unicode="&#xee;" horiz-adv-x="454" 
d="M113 0v1102h229v-1102h-229zM115 1528h225l197 -295h-189l-121 182l-121 -182h-188z" />
    <glyph glyph-name="idieresis" unicode="&#xef;" horiz-adv-x="454" 
d="M113 0v1102h229v-1102h-229zM279 1257v222h221v-222h-221zM176 1479v-222h-221v222h221z" />
    <glyph glyph-name="eth" unicode="&#xf0;" 
d="M811 643v-287q0 -376 -356.5 -376t-356.5 376v287q0 377 357 377q31 0 75 -4q-5 59 -59 164l-215 -82l-55 147l190 72q-51 75 -96 113l176 49q51 -37 96 -95l224 86l61 -143l-195 -76q154 -274 154 -608zM328 334q0 -166 127 -166t127 166v332q0 165 -127 165t-127 -165
v-332z" />
    <glyph glyph-name="ntilde" unicode="&#xf1;" 
d="M569 854q0 78 -82 80q-37 0 -71 -20t-76 -50v-864h-229v1102h217v-111q37 31 77 66q73 65 183 65q210 0 211 -231v-891h-230v854zM332 1491q52 -1 108 -27t86 -40t69 -13q73 0 79 90h114q-20 -106 -54 -153q-34 -46 -70 -68t-79 -20q-64 1 -140 40t-123 39t-66 -22
q-18 -23 -20 -68h-115q45 242 211 242z" />
    <glyph glyph-name="ograve" unicode="&#xf2;" 
d="M98 713q0 296 191 380q68 29 166 29q356 -2 356 -409v-324q0 -295 -190 -380q-68 -29 -166 -29q-187 1 -271 106t-86 303v324zM455 168q127 0 127 180v406q0 180 -128 180t-126 -180v-406q0 -180 127 -180zM162 1528h276l162 -295h-170z" />
    <glyph glyph-name="oacute" unicode="&#xf3;" 
d="M98 713q0 296 191 380q68 29 166 29q356 -2 356 -409v-324q0 -295 -190 -380q-68 -29 -166 -29q-187 1 -271 106t-86 303v324zM455 168q127 0 127 180v406q0 180 -128 180t-126 -180v-406q0 -180 127 -180zM479 1233h-170l162 295h277z" />
    <glyph glyph-name="ocircumflex" unicode="&#xf4;" 
d="M98 713q0 296 191 380q68 29 166 29q356 -2 356 -409v-324q0 -295 -190 -380q-68 -29 -166 -29q-187 1 -271 106t-86 303v324zM455 168q127 0 127 180v406q0 180 -128 180t-126 -180v-406q0 -180 127 -180zM342 1528h225l197 -295h-189l-120 182l-121 -182h-189z" />
    <glyph glyph-name="otilde" unicode="&#xf5;" 
d="M98 713q0 296 191 380q68 29 166 29q356 -2 356 -409v-324q0 -295 -190 -380q-68 -29 -166 -29q-187 1 -271 106t-86 303v324zM455 168q127 0 127 180v406q0 180 -128 180t-126 -180v-406q0 -180 127 -180zM332 1491q52 -1 108 -27t86 -40t69 -13q73 0 79 90h114
q-20 -106 -54 -153q-34 -46 -70 -68t-79 -20q-64 1 -140 40t-123 39t-66 -22q-18 -23 -20 -68h-115q45 242 211 242z" />
    <glyph glyph-name="odieresis" unicode="&#xf6;" 
d="M98 713q0 296 191 380q68 29 166 29q356 -2 356 -409v-324q0 -295 -190 -380q-68 -29 -166 -29q-187 1 -271 106t-86 303v324zM455 168q127 0 127 180v406q0 180 -128 180t-126 -180v-406q0 -180 127 -180zM506 1257v222h221v-222h-221zM403 1479v-222h-221v222h221z" />
    <glyph glyph-name="divide" unicode="&#xf7;" horiz-adv-x="1228" 
d="M96 418v200h1037v-200h-1037zM451 94.5q0 67.5 48 115.5t115.5 48t115.5 -48t48 -115.5t-48 -116t-115.5 -48.5t-115.5 48.5t-48 116zM451 942q0 68 48 116t115.5 48t115.5 -48t48 -116t-48 -116t-115.5 -48t-115.5 48t-48 116z" />
    <glyph glyph-name="oslash" unicode="&#xf8;" 
d="M98 389v324q0 409 357 409q78 0 145 -22l84 223h139l-110 -293q98 -102 98 -317v-324q0 -409 -356 -409q-80 0 -142 22l-92 -248h-135l119 314q-107 103 -107 321zM455 934q-127 0 -127 -180v-400h4l205 551q-29 29 -82 29zM455 168q127 0 127 180v375h-4l-201 -530
q33 -25 78 -25z" />
    <glyph glyph-name="ugrave" unicode="&#xf9;" 
d="M340 248q0 -80 82 -80q37 0 72 20t75 50v864h230v-1102h-217v111q-37 -31 -66 -56t-77 -50t-138 -25t-140 61t-50 170v891h229v-854zM162 1528h276l162 -295h-170z" />
    <glyph glyph-name="uacute" unicode="&#xfa;" 
d="M340 248q0 -80 82 -80q37 0 72 20t75 50v864h230v-1102h-217v111q-37 -31 -66 -56t-77 -50t-138 -25t-140 61t-50 170v891h229v-854zM479 1233h-170l162 295h277z" />
    <glyph glyph-name="ucircumflex" unicode="&#xfb;" 
d="M340 248q0 -80 82 -80q37 0 72 20t75 50v864h230v-1102h-217v111q-37 -31 -66 -56t-77 -50t-138 -25t-140 61t-50 170v891h229v-854zM342 1528h225l197 -295h-189l-120 182l-121 -182h-189z" />
    <glyph glyph-name="udieresis" unicode="&#xfc;" 
d="M340 248q0 -80 82 -80q37 0 72 20t75 50v864h230v-1102h-217v111q-37 -31 -66 -56t-77 -50t-138 -25t-140 61t-50 170v891h229v-854zM506 1257v222h221v-222h-221zM403 1479v-222h-221v222h221z" />
    <glyph glyph-name="yacute" unicode="&#xfd;" horiz-adv-x="796" 
d="M174 -346h-96v188h55q86 0 119 45t33 115t-25 164l-240 936h234l147 -705h5l139 705h231l-289 -1184q-34 -145 -108 -205q-74 -59 -205 -59zM424 1233h-170l162 295h276z" />
    <glyph glyph-name="thorn" unicode="&#xfe;" 
d="M340 1479v-482h4q47 66 97.5 95.5t148.5 29.5t159.5 -77.5t61.5 -229.5v-528q0 -152 -62.5 -229.5t-170.5 -77.5q-73 0 -122 29t-116 85v-442h-229v1827h229zM340 225q80 -57 132 -57t81 39t29 139v410q0 148 -44 163t-79 15t-119 -57v-652z" />
    <glyph glyph-name="ydieresis" unicode="&#xff;" horiz-adv-x="796" 
d="M174 -346h-96v188h55q86 0 119 45t33 115t-25 164l-240 936h234l147 -705h5l139 705h231l-289 -1184q-34 -145 -108 -205q-74 -59 -205 -59zM451 1257v222h221v-222h-221zM348 1479v-222h-221v222h221z" />
    <glyph glyph-name="Amacron" unicode="&#x100;" 
d="M270 0h-245l272 1479h315l273 -1479h-246l-45 328h-279zM352 549h205l-100 635h-4zM158 1757h602v-131h-602v131z" />
    <glyph glyph-name="amacron" unicode="&#x101;" 
d="M788 117q0 -12 15 -117h-219q-2 22 -6 44t-7 42q-66 -53 -125 -80t-143 -26q-117 0 -175 70t-58 169q0 185 116 298t373 210v66q0 141 -113 141q-78 0 -102 -42t-29 -114h-229q10 168 108 256t261 88q333 0 333 -299v-706zM299 268q0 -102 107 -100q82 0 153 102v289
q-155 -89 -196 -139q-42 -49 -53 -82t-11 -70zM154 1436h602v-131h-602v131z" />
    <glyph glyph-name="Abreve" unicode="&#x102;" 
d="M270 0h-245l272 1479h315l273 -1479h-246l-45 328h-279zM352 549h205l-100 635h-4zM457 1704q82 0 127 36t55 115h119q-13 -198 -172 -267q-55 -24 -129 -24t-129 24q-159 68 -172 267h118q19 -151 183 -151z" />
    <glyph glyph-name="abreve" unicode="&#x103;" 
d="M788 117q0 -12 15 -117h-219q-2 22 -6 44t-7 42q-66 -53 -125 -80t-143 -26q-117 0 -175 70t-58 169q0 185 116 298t373 210v66q0 141 -113 141q-78 0 -102 -42t-29 -114h-229q10 168 108 256t261 88q333 0 333 -299v-706zM299 268q0 -102 107 -100q82 0 153 102v289
q-155 -89 -196 -139q-42 -49 -53 -82t-11 -70zM455 1382q82 0 127 36t55 116h119q-14 -201 -172 -267q-55 -24 -129 -24q-137 0 -222 87q-70 76 -79 204h118q19 -152 183 -152z" />
    <glyph glyph-name="Aogonek" unicode="&#x104;" 
d="M352 549h205l-100 635h-4zM694 -334q73 0 185 82l39 -74q-66 -47 -137.5 -85t-154.5 -38t-141.5 48.5t-58.5 134.5q0 146 162 229q45 20 92 37h-41l-45 328h-279l-45 -328h-245l272 1479h315l273 -1479h-64q-18 -10 -53 -26t-104.5 -67t-69.5 -145q0 -47 29.5 -71.5
t70.5 -24.5z" />
    <glyph glyph-name="aogonek" unicode="&#x105;" 
d="M406 168q81 0 153 102v289q-156 -90 -208 -153t-52 -127t26.5 -87.5t80.5 -23.5zM623 -334q69 0 176 78l39 -74q-66 -47 -133.5 -83t-150.5 -36t-141.5 48.5t-58.5 134.5q0 144 162 229q43 20 82 35q-16 54 -16 100q-76 -61 -136 -89.5t-160 -28.5t-158 70.5t-58 168.5
q0 185 116.5 297.5t372.5 210.5v66q0 141 -113 141q-78 0 -102.5 -42t-28.5 -114h-229q10 168 108.5 256t260.5 88q333 0 333 -299v-706q0 -8 15 -117h-72q-16 -10 -39 -20q-31 -23 -100.5 -74t-69.5 -144q0 -47 30 -71.5t71 -24.5z" />
    <glyph glyph-name="Cacute" unicode="&#x106;" horiz-adv-x="1024" 
d="M635 1100q1 178 -137 178q-64 0 -92 -40t-29 -124v-749q0 -84 29 -124q28 -40 102 -40t100 39t27 110v178h254v-170q0 -163 -97 -271q-97 -109 -284 -108t-287 108t-98 271v762q0 168 99 274q99 105 286 105t284 -116t97 -289v-109h-254v115zM537 1554h-170l161 295h277z
" />
    <glyph glyph-name="cacute" unicode="&#x107;" 
d="M455 168q127 0 127 180v70h229v-29q0 -295 -190 -380q-68 -29 -166 -29q-187 1 -271 106t-86 303v324q0 296 191 380q68 29 165 29q96 0 164 -28q186 -78 193 -369h-229v29q0 180 -128 180t-126 -180v-406q0 -180 127 -180zM485 1233h-170l162 295h277z" />
    <glyph glyph-name="Ccircumflex" unicode="&#x108;" horiz-adv-x="1024" 
d="M635 1100q1 178 -137 178q-64 0 -92 -40t-29 -124v-749q0 -84 29 -124q28 -40 102 -40t100 39t27 110v178h254v-170q0 -163 -97 -271q-97 -109 -284 -108t-287 108t-98 271v762q0 168 99 274q99 105 286 105t284 -116t97 -289v-109h-254v115zM395 1849h226l196 -295h-188
l-121 183l-121 -183h-188z" />
    <glyph glyph-name="ccircumflex" unicode="&#x109;" 
d="M455 168q127 0 127 180v70h229v-29q0 -295 -190 -380q-68 -29 -166 -29q-187 1 -271 106t-86 303v324q0 296 191 380q68 29 165 29q96 0 164 -28q186 -78 193 -369h-229v29q0 180 -128 180t-126 -180v-406q0 -180 127 -180zM342 1528h225l197 -295h-189l-120 182
l-121 -182h-189z" />
    <glyph glyph-name="Cdotaccent" unicode="&#x10a;" horiz-adv-x="1024" 
d="M635 1100q1 178 -137 178q-64 0 -92 -40t-29 -124v-749q0 -84 29 -124q28 -40 102 -40t100 39t27 110v178h254v-170q0 -163 -97 -271q-97 -109 -284 -108t-287 108t-98 271v762q0 168 99 274q99 105 286 105t284 -116t97 -289v-109h-254v115zM618 1800v-221h-221v221h221
z" />
    <glyph glyph-name="cdotaccent" unicode="&#x10b;" 
d="M455 168q127 0 127 180v70h229v-29q0 -295 -190 -380q-68 -29 -166 -29q-187 1 -271 106t-86 303v324q0 296 191 380q68 29 165 29q96 0 164 -28q186 -78 193 -369h-229v29q0 180 -128 180t-126 -180v-406q0 -180 127 -180zM567 1479v-222h-221v222h221z" />
    <glyph glyph-name="Ccaron" unicode="&#x10c;" horiz-adv-x="1024" 
d="M635 1100q1 178 -137 178q-64 0 -92 -40t-29 -124v-749q0 -84 29 -124q28 -40 102 -40t100 39t27 110v178h254v-170q0 -163 -97 -271q-97 -109 -284 -108t-287 108t-98 271v762q0 168 99 274q99 105 286 105t284 -116t97 -289v-109h-254v115zM618 1554h-225l-196 295h188
l121 -182l121 182h188z" />
    <glyph glyph-name="ccaron" unicode="&#x10d;" 
d="M455 168q127 0 127 180v70h229v-29q0 -295 -190 -380q-68 -29 -166 -29q-187 1 -271 106t-86 303v324q0 296 191 380q68 29 165 29q96 0 164 -28q186 -78 193 -369h-229v29q0 180 -128 180t-126 -180v-406q0 -180 127 -180zM567 1233h-225l-197 295h189l121 -182l120 182
h189z" />
    <glyph glyph-name="Dcaron" unicode="&#x10e;" horiz-adv-x="1024" 
d="M901 446q0 -446 -401 -446h-377v1479h377q401 0 401 -447v-586zM377 209h88q102 0 142 45t40 162v647q0 117 -40 162t-142 45h-88v-1061zM571 1554h-225l-196 295h188l121 -182l121 182h188z" />
    <glyph glyph-name="dcaron" unicode="&#x10f;" 
d="M582 0v115h-4q-56 -72 -108 -104q-52 -31 -150 -31t-159 78q-62 78 -63 229v528q0 151 62 229t172 78q71 0 110 -22q40 -22 66 -44t61 -48v471h230v-1479h-217zM328 346q0 -110 32 -144t81 -34q50 0 128 57v652q-80 57 -129 57t-81 -35t-31 -143v-410zM866 1288v191h176
v-187l-71 -178h-84l57 174h-78z" />
    <glyph glyph-name="Dcroat" unicode="&#x110;" horiz-adv-x="1024" 
d="M901 446q0 -446 -401 -446h-377v655h-82v222h82v602h377q199 0 300 -108.5t101 -338.5v-586zM528 655h-151v-446h88q102 0 142 45t40 162v647q0 117 -40 162t-142 45h-88v-393h151v-222z" />
    <glyph glyph-name="dcroat" unicode="&#x111;" 
d="M328 735v-389q0 -109 31.5 -143.5t80.5 -34.5t129 57v631q-80 57 -129 57t-80.5 -34.5t-31.5 -143.5zM582 0v115h-4q-57 -72 -108.5 -103.5t-149.5 -31.5t-160 77.5t-62 229.5v508q0 152 62.5 227.5t171.5 75.5q70 0 109.5 -21.5t66.5 -42t63 -47.5v219h-221v160h221v113
h228v-113h110v-160h-110v-1206h-217z" />
    <glyph glyph-name="Emacron" unicode="&#x112;" 
d="M123 0v1479h680v-222h-426v-380h328v-222h-328v-434h454v-221h-708zM178 1757h602v-131h-602v131z" />
    <glyph glyph-name="emacron" unicode="&#x113;" 
d="M455 168q127 0 127 180v25h229q-6 -284 -194 -365q-67 -28 -163 -28q-186 1 -270 106t-86 303v324q0 296 191 380q68 29 166 29q356 -2 356 -409v-205h-483v-160q0 -180 127 -180zM582 754q0 180 -128 180t-126 -180v-58h254v58zM154 1436h602v-131h-602v131z" />
    <glyph glyph-name="Ebreve" unicode="&#x114;" 
d="M123 0v1479h680v-222h-426v-380h328v-222h-328v-434h454v-221h-708zM479 1704q82 0 127 36t56 115h118q-13 -198 -172 -267q-55 -24 -129 -24q-141 1 -216 82t-85 209h119q10 -79 55 -115t127 -36z" />
    <glyph glyph-name="ebreve" unicode="&#x115;" 
d="M455 168q127 0 127 180v25h229q-6 -284 -194 -365q-67 -28 -163 -28q-186 1 -270 106t-86 303v324q0 296 191 380q68 29 166 29q356 -2 356 -409v-205h-483v-160q0 -180 127 -180zM582 754q0 180 -128 180t-126 -180v-58h254v58zM455 1382q82 0 127 36t55 116h119
q-14 -201 -172 -267q-55 -24 -129 -24q-137 0 -222 87q-70 76 -79 204h118q19 -152 183 -152z" />
    <glyph glyph-name="Edotaccent" unicode="&#x116;" 
d="M123 0v1479h680v-222h-426v-380h328v-222h-328v-434h454v-221h-708zM586 1800v-221h-221v221h221z" />
    <glyph glyph-name="edotaccent" unicode="&#x117;" 
d="M455 168q127 0 127 180v25h229q-6 -284 -194 -365q-67 -28 -163 -28q-186 1 -270 106t-86 303v324q0 296 191 380q68 29 166 29q356 -2 356 -409v-205h-483v-160q0 -180 127 -180zM582 754q0 180 -128 180t-126 -180v-58h254v58zM565 1479v-222h-221v222h221z" />
    <glyph glyph-name="Eogonek" unicode="&#x118;" 
d="M623 -334q72 0 184 82l39 -74q-66 -47 -137.5 -85t-154.5 -38t-141.5 48.5t-58.5 134.5q0 144 162 229q45 20 92 37h-485v1479h680v-222h-426v-380h328v-222h-328v-434h454v-221h-81q-18 -10 -53 -26t-105 -67.5t-70 -144.5q0 -47 30 -71.5t71 -24.5z" />
    <glyph glyph-name="eogonek" unicode="&#x119;" 
d="M582 754q0 180 -127 180t-127 -180v-58h254v58zM438 -20q-340 8 -340 409v324q0 409 356.5 409t356.5 -409v-205h-483v-160q0 -180 127 -180t127 180v25h229q-6 -283 -193 -365q-36 -22 -80 -67t-72 -86t-28 -91t30 -74t71 -24q72 0 184 82l39 -74q-66 -47 -137.5 -85
t-154.5 -38t-141.5 48.5t-58.5 134.5t47.5 143t114.5 98z" />
    <glyph glyph-name="Ecaron" unicode="&#x11a;" 
d="M123 0v1479h680v-222h-426v-380h328v-222h-328v-434h454v-221h-708zM594 1554h-225l-197 295h188l121 -182l121 182h189z" />
    <glyph glyph-name="ecaron" unicode="&#x11b;" 
d="M455 168q127 0 127 180v25h229q-6 -284 -194 -365q-67 -28 -163 -28q-186 1 -270 106t-86 303v324q0 296 191 380q68 29 166 29q356 -2 356 -409v-205h-483v-160q0 -180 127 -180zM582 754q0 180 -128 180t-126 -180v-58h254v58zM567 1233h-225l-197 295h189l121 -182
l120 182h189z" />
    <glyph glyph-name="Gcircumflex" unicode="&#x11c;" horiz-adv-x="1024" 
d="M473 750h416v-750h-123l-47 111q-57 -68 -111 -100t-145 -31q-152 0 -246 100t-94 278v762q0 166 96 272q96 107 277 107q181 1 281 -115t100 -290v-95h-242q0 232 -81 267q-28 12 -70 12t-74 -34t-33 -128v-760q1 -72 27 -114t98 -41q72 0 102 47t31 158v143h-162v201z
M387 1849h225l197 -295h-188l-121 183l-121 -183h-189z" />
    <glyph glyph-name="gcircumflex" unicode="&#x11d;" 
d="M872 -86q0 -262 -446 -262q-389 0 -389 176q0 66 45 112t104 60v4q-104 40 -104 139q0 56 41 101t98 78q-43 32 -71 60q-55 55 -69 176q-7 62 -7 167q0 219 81 308t275 89q153 0 254 -118q52 74 86 96q35 22 102 22v-190q-10 2 -18 2h-18q-71 0 -111 -35q22 -80 24 -190
q4 -339 -194 -405q-66 -22 -154 -21h-73q-18 -3 -32 -17t-13 -35q0 -37 44 -48q48 -12 234 -19t267 -103q44 -51 44 -147zM406 934q-115 0 -115 -200q0 -102 7 -146q18 -117 110 -117q66 0 89 46q23 47 23 151q0 174 -23 220t-91 46zM473 -184q115 0 155 19t40 63t-40 62
q-40 20 -155 20t-155 -20t-40 -62q0 -43 40 -63q40 -19 155 -19zM311 1528h226l196 -295h-188l-121 182l-121 -182h-188z" />
    <glyph glyph-name="Gbreve" unicode="&#x11e;" horiz-adv-x="1024" 
d="M473 750h416v-750h-123l-47 111q-57 -68 -111 -100t-145 -31q-152 0 -246 100t-94 278v762q0 166 96 272q96 107 277 107q181 1 281 -115t100 -290v-95h-242q0 232 -81 267q-28 12 -70 12t-74 -34t-33 -128v-760q1 -72 27 -114t98 -41q72 0 102 47t31 158v143h-162v201z
M500 1704q82 0 127 36t55 115h119q-13 -198 -172 -267q-55 -24 -129 -24t-129 24q-159 68 -172 267h118q19 -151 183 -151z" />
    <glyph glyph-name="gbreve" unicode="&#x11f;" 
d="M872 -86q0 -262 -446 -262q-389 0 -389 176q0 66 45 112t104 60v4q-104 40 -104 139q0 56 41 101t98 78q-43 32 -71 60q-55 55 -69 176q-7 62 -7 167q0 219 81 308t275 89q153 0 254 -118q52 74 86 96q35 22 102 22v-190q-10 2 -18 2h-18q-71 0 -111 -35q22 -80 24 -190
q4 -339 -194 -405q-66 -22 -154 -21h-73q-18 -3 -32 -17t-13 -35q0 -37 44 -48q48 -12 234 -19t267 -103q44 -51 44 -147zM406 934q-115 0 -115 -200q0 -102 7 -146q18 -117 110 -117q66 0 89 46q23 47 23 151q0 174 -23 220t-91 46zM473 -184q115 0 155 19t40 63t-40 62
q-40 20 -155 20t-155 -20t-40 -62q0 -43 40 -63q40 -19 155 -19zM424 1243q-138 0 -216 82q-77 82 -85 209h119q10 -80 55 -116t127 -36t127 36t55 116h119q-14 -201 -172 -267q-55 -24 -129 -24z" />
    <glyph glyph-name="Gdotaccent" unicode="&#x120;" horiz-adv-x="1024" 
d="M473 750h416v-750h-123l-47 111q-57 -68 -111 -100t-145 -31q-152 0 -246 100t-94 278v762q0 166 96 272q96 107 277 107q181 1 281 -115t100 -290v-95h-242q0 232 -81 267q-28 12 -70 12t-74 -34t-33 -128v-760q1 -72 27 -114t98 -41q72 0 102 47t31 158v143h-162v201z
M610 1800v-221h-221v221h221z" />
    <glyph glyph-name="gdotaccent" unicode="&#x121;" 
d="M872 -86q0 -262 -446 -262q-389 0 -389 176q0 66 45 112t104 60v4q-104 40 -104 139q0 56 41 101t98 78q-43 32 -71 60q-55 55 -69 176q-7 62 -7 167q0 219 81 308t275 89q153 0 254 -118q52 74 86 96q35 22 102 22v-190q-10 2 -18 2h-18q-71 0 -111 -35q22 -80 24 -190
q4 -339 -194 -405q-66 -22 -154 -21h-73q-18 -3 -32 -17t-13 -35q0 -37 44 -48q48 -12 234 -19t267 -103q44 -51 44 -147zM406 934q-115 0 -115 -200q0 -102 7 -146q18 -117 110 -117q66 0 89 46q23 47 23 151q0 174 -23 220t-91 46zM473 -184q115 0 155 19t40 63t-40 62
q-40 20 -155 20t-155 -20t-40 -62q0 -43 40 -63q40 -19 155 -19zM535 1479v-222h-222v222h222z" />
    <glyph glyph-name="Gcommaaccent" unicode="&#x122;" horiz-adv-x="1024" 
d="M473 750h416v-750h-123l-47 111q-57 -68 -111 -100t-145 -31q-152 0 -246 100t-94 278v762q0 166 96 272q96 107 277 107q181 1 281 -115t100 -290v-95h-242q0 232 -81 267q-28 12 -70 12t-74 -34t-33 -128v-760q1 -72 27 -114t98 -41q72 0 102 47t31 158v143h-162v201z
M406 -299v197h190v-193l-72 -172h-94l59 168h-83z" />
    <glyph glyph-name="gcommaaccent" unicode="&#x123;" 
d="M872 -86q0 -262 -446 -262q-389 0 -389 176q0 66 45 112t104 60v4q-104 40 -104 139q0 56 41 101t98 78q-43 32 -71 60q-55 55 -69 176q-7 62 -7 167q0 219 81 308t275 89q153 0 254 -118q52 74 86 96q35 22 102 22v-190q-10 2 -18 2h-18q-71 0 -111 -35q22 -80 24 -190
q4 -339 -194 -405q-66 -22 -154 -21h-73q-18 -3 -32 -17t-13 -35q0 -37 44 -48q48 -12 234 -19t267 -103q44 -51 44 -147zM406 934q-115 0 -115 -200q0 -102 7 -146q18 -117 110 -117q66 0 89 46q23 47 23 151q0 174 -23 220t-91 46zM473 -184q115 0 155 19t40 63t-40 62
q-40 20 -155 20t-155 -20t-40 -62q0 -43 40 -63q40 -19 155 -19zM504 1378v-172h-174v170l65 152h86l-53 -150h76z" />
    <glyph glyph-name="Hcircumflex" unicode="&#x124;" horiz-adv-x="1024" 
d="M123 0v1479h254v-602h270v602h254v-1479h-254v655h-270v-655h-254zM403 1849h226l196 -295h-188l-121 183l-121 -183h-188z" />
    <glyph glyph-name="hcircumflex" unicode="&#x125;" 
d="M569 854q0 78 -82 80q-37 0 -71 -20t-76 -50v-864h-229v1479h229v-480q30 27 58 51q82 72 192 72q210 0 209 -231v-891h-230v854zM332 1849h225l197 -295h-189l-121 183l-120 -183h-189z" />
    <glyph glyph-name="Hbar" unicode="&#x126;" horiz-adv-x="1024" 
d="M377 758h270v276h-270v-276zM123 0v1479h254v-269h270v269h254v-1479h-254v549h-270v-549h-254z" />
    <glyph glyph-name="hbar" unicode="&#x127;" 
d="M569 842q0 80 -59 80t-94 -20.5t-76 -49.5v-852h-229v1206h-109v160h109v113h229v-113h229v-160h-229v-219q83 72 129.5 97.5t137.5 25.5t141.5 -61.5t50.5 -169.5v-879h-230v842z" />
    <glyph glyph-name="Itilde" unicode="&#x128;" horiz-adv-x="569" 
d="M158 0v1479h254v-1479h-254zM427 1733q40 1 58 23t21 67h115q-30 -164 -124 -220q-36 -22 -91 -22t-130 40t-122 40q-48 0 -66 -23t-20 -67h-115q45 244 211 241q49 0 106 -26q58 -26 88 -40t69 -13z" />
    <glyph glyph-name="itilde" unicode="&#x129;" horiz-adv-x="454" 
d="M113 0v1102h229v-1102h-229zM109 1491q52 -1 108 -27q55 -26 85 -40t70 -13q73 0 79 90h114q-20 -106 -54 -153q-34 -46 -70 -68t-80 -20q-63 1 -139 40t-124 39q-47 -1 -65 -23t-21 -67h-114q45 242 211 242z" />
    <glyph glyph-name="Imacron" unicode="&#x12a;" horiz-adv-x="569" 
d="M158 0v1479h254v-1479h-254zM-18 1757h602v-131h-602v131z" />
    <glyph glyph-name="imacron" unicode="&#x12b;" horiz-adv-x="454" 
d="M113 0v1102h229v-1102h-229zM-72 1436h602v-131h-602v131z" />
    <glyph glyph-name="Iogonek" unicode="&#x12e;" horiz-adv-x="569" 
d="M289 -334q74 0 178 76l39 -74q-66 -49 -132.5 -83t-149.5 -34t-143.5 49.5t-60.5 133.5q0 141 148 229q39 20 76 37h-86v1479h254v-1479h-47q-38 -21 -107.5 -84.5t-69.5 -153.5q0 -47 30 -71.5t71 -24.5z" />
    <glyph glyph-name="iogonek" unicode="&#x12f;" horiz-adv-x="454" 
d="M113 1270v209h229v-209h-229zM231 -334q75 0 179 76l39 -74q-66 -49 -132.5 -83t-149.5 -34t-143.5 49.5t-60.5 133.5q0 143 148 229q39 20 75 37h-73v1102h229v-1102h-35q-38 -21 -107 -84t-69 -154q0 -47 29.5 -71.5t70.5 -24.5z" />
    <glyph glyph-name="Idotaccent" unicode="&#x130;" horiz-adv-x="569" 
d="M158 0v1479h254v-1479h-254zM395 1800v-221h-221v221h221z" />
    <glyph glyph-name="dotlessi" unicode="&#x131;" horiz-adv-x="454" 
d="M113 0v1102h229v-1102h-229z" />
    <glyph glyph-name="Jcircumflex" unicode="&#x134;" horiz-adv-x="569" 
d="M6 201h53q74 1 104 31t30 92v1155h253v-1184q0 -152 -78 -235q-78 -82 -278 -80h-84v221zM199 1849h225l197 -295h-189l-121 183l-121 -183h-188z" />
    <glyph glyph-name="jcircumflex" unicode="&#x135;" horiz-adv-x="454" 
d="M354 -63q0 -285 -266 -285h-88v209h39q84 0 86 86v1153h229v-1163zM119 1528h225l197 -295h-189l-121 182l-120 -182h-189z" />
    <glyph glyph-name="Kcommaaccent" unicode="&#x136;" 
d="M111 0v1479h254v-547h4l266 547h254l-275 -551l310 -928h-258l-207 688h-4l-90 -164v-524h-254zM395 -299v197h191v-193l-72 -172h-94l59 168h-84z" />
    <glyph glyph-name="kcommaaccent" unicode="&#x137;" 
d="M340 0h-229v1479h229v-766h4l252 389h246l-240 -348l266 -754h-231l-184 547h-4l-109 -162v-385zM375 -299v197h190v-193l-71 -172h-95l60 168h-84z" />
    <glyph glyph-name="Lacute" unicode="&#x139;" horiz-adv-x="796" 
d="M111 0v1479h254v-1258h399v-221h-653zM311 1554h-170l162 295h277z" />
    <glyph glyph-name="lacute" unicode="&#x13a;" horiz-adv-x="454" 
d="M113 0v1479h229v-1479h-229zM256 1554h-170l162 295h276z" />
    <glyph glyph-name="Lcommaaccent" unicode="&#x13b;" horiz-adv-x="796" 
d="M111 0v1479h254v-1258h399v-221h-653zM336 -299v197h190v-193l-71 -172h-95l60 168h-84z" />
    <glyph glyph-name="lcommaaccent" unicode="&#x13c;" horiz-adv-x="454" 
d="M113 0v1479h229v-1479h-229zM129 -299v197h190v-193l-71 -172h-94l59 168h-84z" />
    <glyph glyph-name="Lcaron" unicode="&#x13d;" horiz-adv-x="796" 
d="M111 0v1479h254v-1258h399v-221h-653zM453 1288v191h176v-187l-72 -178h-84l57 174h-77z" />
    <glyph glyph-name="lcaron" unicode="&#x13e;" horiz-adv-x="454" 
d="M113 0v1479h229v-1479h-229zM410 1288v191h176v-187l-72 -178h-84l57 174h-77z" />
    <glyph glyph-name="Ldot" unicode="&#x13f;" horiz-adv-x="796" 
d="M111 0v1479h254v-1258h399v-221h-653zM700 860v-221h-221v221h221z" />
    <glyph glyph-name="ldot" unicode="&#x140;" horiz-adv-x="776" 
d="M113 0v1479h229v-1479h-229zM713 860v-221h-221v221h221z" />
    <glyph glyph-name="Lslash" unicode="&#x141;" horiz-adv-x="796" 
d="M365 221h399v-221h-653v594l-111 -45v168l111 45v717h254v-617l237 96v-167l-237 -97v-473z" />
    <glyph glyph-name="lslash" unicode="&#x142;" horiz-adv-x="454" 
d="M342 0h-229v682l-144 -74v152l144 74v645h229v-529l143 74v-152l-143 -73v-799z" />
    <glyph glyph-name="Nacute" unicode="&#x143;" horiz-adv-x="1024" 
d="M123 0v1479h235l310 -846h4v846h229v-1479h-221l-324 924h-4v-924h-229zM557 1554h-170l162 295h276z" />
    <glyph glyph-name="nacute" unicode="&#x144;" 
d="M569 854q0 78 -82 80q-37 0 -71 -20t-76 -50v-864h-229v1102h217v-111q37 31 77 66q73 65 183 65q210 0 211 -231v-891h-230v854zM506 1233h-170l162 295h276z" />
    <glyph glyph-name="Ncommaaccent" unicode="&#x145;" horiz-adv-x="1024" 
d="M123 0v1479h235l310 -846h4v846h229v-1479h-221l-324 924h-4v-924h-229zM418 -299v197h190v-193l-71 -172h-95l60 168h-84z" />
    <glyph glyph-name="ncommaaccent" unicode="&#x146;" 
d="M569 854q0 78 -82 80q-37 0 -71 -20t-76 -50v-864h-229v1102h217v-111q37 31 77 66q73 65 183 65q210 0 211 -231v-891h-230v854zM354 -299v197h191v-193l-72 -172h-94l59 168h-84z" />
    <glyph glyph-name="Ncaron" unicode="&#x147;" horiz-adv-x="1024" 
d="M123 0v1479h235l310 -846h4v846h229v-1479h-221l-324 924h-4v-924h-229zM629 1554h-226l-196 295h188l121 -182l121 182h188z" />
    <glyph glyph-name="ncaron" unicode="&#x148;" 
d="M569 854q0 78 -82 80q-37 0 -71 -20t-76 -50v-864h-229v1102h217v-111q37 31 77 66q73 65 183 65q210 0 211 -231v-891h-230v854zM571 1233h-225l-196 295h188l121 -182l121 182h188z" />
    <glyph glyph-name="Omacron" unicode="&#x14c;" horiz-adv-x="1024" 
d="M123 1120q0 168 99 274q99 105 289 105q189 0 291 -107q101 -107 99 -272v-762q0 -260 -216 -349q-73 -29 -173 -29q-191 1 -291 107t-98 271v762zM377 365q0 -84 29 -124q28 -40 106 -40t106 40t29 124v749q0 84 -29 124q-28 40 -106 40t-106 -40t-29 -124v-749z
M213 1757h602v-131h-602v131z" />
    <glyph glyph-name="omacron" unicode="&#x14d;" 
d="M98 713q0 296 191 380q68 29 166 29q356 -2 356 -409v-324q0 -295 -190 -380q-68 -29 -166 -29q-187 1 -271 106t-86 303v324zM455 168q127 0 127 180v406q0 180 -128 180t-126 -180v-406q0 -180 127 -180zM156 1436h602v-131h-602v131z" />
    <glyph glyph-name="Obreve" unicode="&#x14e;" horiz-adv-x="1024" 
d="M123 1120q0 168 99 274q99 105 289 105q189 0 291 -107q101 -107 99 -272v-762q0 -260 -216 -349q-73 -29 -173 -29q-191 1 -291 107t-98 271v762zM377 365q0 -84 29 -124q28 -40 106 -40t106 40t29 124v749q0 84 -29 124q-28 40 -106 40t-106 -40t-29 -124v-749z
M510 1704q82 0 127 36t55 115h119q-13 -198 -172 -267q-55 -24 -129 -24t-129 24q-159 68 -172 267h119q10 -79 55 -115t127 -36z" />
    <glyph glyph-name="obreve" unicode="&#x14f;" 
d="M98 713q0 296 191 380q68 29 166 29q356 -2 356 -409v-324q0 -295 -190 -380q-68 -29 -166 -29q-187 1 -271 106t-86 303v324zM455 168q127 0 127 180v406q0 180 -128 180t-126 -180v-406q0 -180 127 -180zM457 1382q82 0 127 36t55 116h119q-14 -201 -172 -267
q-55 -24 -129 -24q-138 0 -216 82q-77 82 -85 209h118q19 -152 183 -152z" />
    <glyph glyph-name="Ohungarumlaut" unicode="&#x150;" horiz-adv-x="1024" 
d="M123 1120q0 168 99 274q99 105 289 105q189 0 291 -107q101 -107 99 -272v-762q0 -260 -216 -349q-73 -29 -173 -29q-191 1 -291 107t-98 271v762zM377 365q0 -84 29 -124q28 -40 106 -40t106 40t29 124v749q0 84 -29 124q-28 40 -106 40t-106 -40t-29 -124v-749z
M723 1554h-170l162 295h276zM375 1554h-162l141 295h277z" />
    <glyph glyph-name="ohungarumlaut" unicode="&#x151;" 
d="M98 713q0 296 191 380q68 29 166 29q356 -2 356 -409v-324q0 -295 -190 -380q-68 -29 -166 -29q-187 1 -271 106t-86 303v324zM455 168q127 0 127 180v406q0 180 -128 180t-126 -180v-406q0 -180 127 -180zM662 1233h-170l161 295h277zM313 1233h-161l141 295h276z" />
    <glyph glyph-name="OE" unicode="&#x152;" horiz-adv-x="1478" 
d="M553 0q-213 0 -321.5 115.5t-108.5 335.5v577q0 219 108.5 335t321.5 116h819v-222h-442v-380h344v-222h-344v-434h471v-221h-848zM377 420q0 -195 158 -195q63 0 102 35t39 119v727q0 84 -39 119t-102 35q-158 0 -158 -195v-645z" />
    <glyph glyph-name="oe" unicode="&#x153;" horiz-adv-x="1366" 
d="M98 389v324q0 295 121 352t219 57q190 0 254 -125q74 125 244 125q332 0 332 -409v-205h-469v-160q0 -96 25.5 -138t119.5 -42t94 180v25h230q-6 -284 -126 -338.5t-206 -54.5q-173 0 -248 126q-70 -126 -258 -126q-332 0 -332 409zM455 168q114 0 114 180v406
q0 180 -114 180q-127 0 -127 -180v-406q0 -180 127 -180zM1038 754q0 180 -94 180t-119.5 -42t-25.5 -138v-58h239v58z" />
    <glyph glyph-name="Racute" unicode="&#x154;" horiz-adv-x="1024" 
d="M377 606v-606h-254v1479h356q213 -1 322 -101t108 -336q0 -296 -178 -372l215 -670h-258l-180 612q-38 -6 -131 -6zM377 815h90q107 0 147 49q41 49 41 179q0 131 -43 179t-145 48h-90v-455zM510 1554h-170l162 295h276z" />
    <glyph glyph-name="racute" unicode="&#x155;" horiz-adv-x="681" 
d="M340 758v-758h-229v1102h219v-129h4q42 73 110 111t150 38h47v-239q-85 22 -146 22q-59 0 -107 -37t-48 -110zM430 1233h-170l162 295h276z" />
    <glyph glyph-name="Rcommaaccent" unicode="&#x156;" horiz-adv-x="1024" 
d="M377 606v-606h-254v1479h356q213 -1 322 -101t108 -336q0 -296 -178 -372l215 -670h-258l-180 612q-38 -6 -131 -6zM377 815h90q107 0 147 49q41 49 41 179q0 131 -43 179t-145 48h-90v-455zM412 -299v197h190v-193l-72 -172h-94l60 168h-84z" />
    <glyph glyph-name="rcommaaccent" unicode="&#x157;" horiz-adv-x="681" 
d="M340 758v-758h-229v1102h219v-129h4q42 73 110 111t150 38h47v-239q-85 22 -146 22q-59 0 -107 -37t-48 -110zM129 -299v197h190v-193l-71 -172h-94l59 168h-84z" />
    <glyph glyph-name="Rcaron" unicode="&#x158;" horiz-adv-x="1024" 
d="M377 606v-606h-254v1479h356q213 -1 322 -101t108 -336q0 -296 -178 -372l215 -670h-258l-180 612q-38 -6 -131 -6zM377 815h90q107 0 147 49q41 49 41 179q0 131 -43 179t-145 48h-90v-455zM594 1554h-225l-197 295h188l121 -182l121 182h189z" />
    <glyph glyph-name="rcaron" unicode="&#x159;" horiz-adv-x="681" 
d="M340 758v-758h-229v1102h219v-129h4q42 73 110 111t150 38h47v-239q-85 22 -146 22q-59 0 -107 -37t-48 -110zM498 1233h-226l-196 295h188l121 -182l121 182h188z" />
    <glyph glyph-name="Sacute" unicode="&#x15a;" 
d="M451 1278q-61 0 -95 -38t-32 -104q0 -66 38 -120q62 -89 220 -214q258 -205 258 -444q0 -178 -110 -279t-286 -100q-177 1 -278 119t-109 291l242 35q8 -113 49 -168t105 -55q65 0 105 35q40 34 40 104t-38 127t-95 111t-125 106q-258 201 -258 444q0 180 102 276t291 95
q226 0 317 -215q28 -66 35 -143l-241 -27q-11 124 -92 156q-23 8 -43 8zM492 1554h-170l161 295h277z" />
    <glyph glyph-name="sacute" unicode="&#x15b;" horiz-adv-x="796" 
d="M397 934q-45 0 -73 -23t-27 -65q0 -42 37 -84q37 -41 135 -112q98 -70 146 -118q112 -113 112 -255q0 -141 -87 -219t-236 -78q-150 0 -236 80t-113 227l201 55q10 -70 42 -122t110 -52q46 0 74 25t28 71t-32 87q-43 54 -178 149q-220 156 -220 322q0 135 90 219
q90 83 221 82t218 -83t114 -211l-195 -32q-25 137 -131 137zM442 1233h-170l162 295h277z" />
    <glyph glyph-name="Scircumflex" unicode="&#x15c;" 
d="M451 1278q-61 0 -95 -38t-32 -104q0 -66 38 -120q62 -89 220 -214q258 -205 258 -444q0 -178 -110 -279t-286 -100q-177 1 -278 119t-109 291l242 35q8 -113 49 -168t105 -55q65 0 105 35q40 34 40 104t-38 127t-95 111t-125 106q-258 201 -258 444q0 180 102 276t291 95
q226 0 317 -215q28 -66 35 -143l-241 -27q-11 124 -92 156q-23 8 -43 8zM346 1849h225l197 -295h-188l-121 183l-121 -183h-188z" />
    <glyph glyph-name="scircumflex" unicode="&#x15d;" horiz-adv-x="796" 
d="M397 934q-45 0 -73 -23t-27 -65q0 -42 37 -84q37 -41 135 -112q98 -70 146 -118q112 -113 112 -255q0 -141 -87 -219t-236 -78q-150 0 -236 80t-113 227l201 55q10 -70 42 -122t110 -52q46 0 74 25t28 71t-32 87q-43 54 -178 149q-220 156 -220 322q0 135 90 219
q90 83 221 82t218 -83t114 -211l-195 -32q-25 137 -131 137zM285 1528h225l197 -295h-189l-121 182l-121 -182h-188z" />
    <glyph glyph-name="Scedilla" unicode="&#x15e;" 
d="M375 -369q57 0 91 25.5t34 57.5q0 57 -58 70t-112 -9l-45 37l125 170q-153 8 -249 121.5t-104 285.5l242 35q8 -113 49 -168t105 -55t104.5 34.5t40.5 104.5t-38 127t-95 110.5t-220 180.5t-163 370q0 180 102.5 275.5t290.5 95.5q226 0 285 -140t67 -218l-241 -27
q-11 127 -63 145.5t-72 18.5q-61 0 -94 -38t-33 -104t37.5 -119.5t95 -107t220.5 -184t163 -367.5q0 -178 -97 -267.5t-233 -106.5l-72 -107q49 10 139.5 -16.5t90.5 -122.5q0 -106 -74.5 -163.5t-176.5 -57.5t-206 47l35 102q72 -35 129 -35z" />
    <glyph glyph-name="scedilla" unicode="&#x15f;" horiz-adv-x="796" 
d="M320 -369q57 0 90.5 25.5t33.5 57.5q0 58 -57 70t-113 -9l-45 37l125 170q-247 26 -299 305l201 55q10 -70 42 -122t110 -52q45 0 73.5 24.5t28.5 71.5t-32 87t-80 77t-183 132.5t-135 266.5q0 130 88.5 212.5t221.5 82.5q132 0 219 -82t114 -211l-195 -32
q-25 137 -131 137q-45 0 -72.5 -22.5t-27.5 -65.5t31.5 -79t80 -72t103.5 -75.5t135 -119.5t80 -223t-76 -210t-196 -85l-72 -105q50 10 139.5 -17t89.5 -121q0 -106 -74 -164t-176 -58t-206 47l34 102q73 -35 130 -35z" />
    <glyph glyph-name="Scaron" unicode="&#x160;" 
d="M451 1278q-61 0 -95 -38t-32 -104q0 -66 38 -120q62 -89 220 -214q258 -205 258 -444q0 -178 -110 -279t-286 -100q-177 1 -278 119t-109 291l242 35q8 -113 49 -168t105 -55q65 0 105 35q40 34 40 104t-38 127t-95 111t-125 106q-258 201 -258 444q0 180 102 276t291 95
q226 0 317 -215q28 -66 35 -143l-241 -27q-11 124 -92 156q-23 8 -43 8zM567 1556h-225l-197 295h189l121 -182l120 182h189z" />
    <glyph glyph-name="scaron" unicode="&#x161;" horiz-adv-x="796" 
d="M397 934q-45 0 -73 -23t-27 -65q0 -42 37 -84q37 -41 135 -112q98 -70 146 -118q112 -113 112 -255q0 -141 -87 -219t-236 -78q-150 0 -236 80t-113 227l201 55q10 -70 42 -122t110 -52q46 0 74 25t28 71t-32 87q-43 54 -178 149q-220 156 -220 322q0 135 90 219
q90 83 221 82t218 -83t114 -211l-195 -32q-25 137 -131 137zM512 1233h-225l-197 295h189l120 -182l121 182h189z" />
    <glyph glyph-name="Tcommaaccent" unicode="&#x162;" horiz-adv-x="796" 
d="M270 1257h-245v222h745v-222h-246v-1257h-254v1257zM301 -299v197h191v-193l-72 -172h-94l59 168h-84z" />
    <glyph glyph-name="tcommaaccent" unicode="&#x163;" horiz-adv-x="569" 
d="M147 227v686h-127v189h127v297h230v-297h153v-189h-153v-634q0 -90 78 -91h75v-196q-46 -12 -114 -12q-269 0 -269 247zM227 -299v197h191v-193l-72 -172h-94l59 168h-84z" />
    <glyph glyph-name="Tcaron" unicode="&#x164;" horiz-adv-x="796" 
d="M270 1257h-245v222h745v-222h-246v-1257h-254v1257zM510 1554h-225l-197 295h188l121 -182l121 182h189z" />
    <glyph glyph-name="tcaron" unicode="&#x165;" horiz-adv-x="569" 
d="M147 227v686h-127v189h127v297h230v-297h153v-189h-153v-634q0 -90 78 -91h75v-196q-46 -12 -114 -12q-269 0 -269 247zM442 1319v160h166v-158l-63 -152h-84l53 150h-72z" />
    <glyph glyph-name="Tbar" unicode="&#x166;" horiz-adv-x="796" 
d="M270 1257h-245v222h745v-222h-246v-278h193v-217h-193v-762h-254v762h-188v217h188v278z" />
    <glyph glyph-name="tbar" unicode="&#x167;" horiz-adv-x="569" 
d="M147 227v336h-110v170h110v180h-127v189h127v297h230v-297h153v-189h-153v-180h129v-170h-129v-284q0 -90 78 -91h75v-196q-46 -12 -114 -12q-269 0 -269 247z" />
    <glyph glyph-name="Utilde" unicode="&#x168;" horiz-adv-x="1024" 
d="M123 1479h254v-1117q0 -162 135 -161q135 0 135 161v1117h254v-1106q0 -193 -103 -293q-104 -100 -286 -100t-286 100q-103 100 -103 293v1106zM654 1733q40 0 59 22q18 23 20 68h115q-30 -164 -124 -220q-36 -22 -92 -22t-130 40t-121 40t-65 -23t-21 -67h-115
q45 244 211 241q52 0 108 -26t86 -40q29 -14 69 -13z" />
    <glyph glyph-name="utilde" unicode="&#x169;" 
d="M340 248q0 -80 82 -80q37 0 72 20t75 50v864h230v-1102h-217v111q-37 -31 -66 -56t-77 -50t-138 -25t-140 61t-50 170v891h229v-854zM334 1491q52 -1 108 -27t86 -40t69 -13q73 0 79 90h115q-30 -164 -119 -218t-226 17q-76 39 -122 39q-47 0 -66 -22q-18 -23 -20 -68
h-115q45 242 211 242z" />
    <glyph glyph-name="Umacron" unicode="&#x16a;" horiz-adv-x="1024" 
d="M123 1479h254v-1117q0 -162 135 -161q135 0 135 161v1117h254v-1106q0 -193 -103 -293q-104 -100 -286 -100t-286 100q-103 100 -103 293v1106zM213 1757h602v-131h-602v131z" />
    <glyph glyph-name="umacron" unicode="&#x16b;" 
d="M340 248q0 -80 82 -80q37 0 72 20t75 50v864h230v-1102h-217v111q-37 -31 -66 -56t-77 -50t-138 -25t-140 61t-50 170v891h229v-854zM156 1436h602v-131h-602v131z" />
    <glyph glyph-name="Ubreve" unicode="&#x16c;" horiz-adv-x="1024" 
d="M123 1479h254v-1117q0 -162 135 -161q135 0 135 161v1117h254v-1106q0 -193 -103 -293q-104 -100 -286 -100t-286 100q-103 100 -103 293v1106zM518 1704q82 0 127 36t55 115h119q-13 -198 -172 -267q-55 -24 -129 -24q-141 1 -216 82t-85 209h119q10 -79 55 -115
t127 -36z" />
    <glyph glyph-name="ubreve" unicode="&#x16d;" 
d="M340 248q0 -80 82 -80q37 0 72 20t75 50v864h230v-1102h-217v111q-37 -31 -66 -56t-77 -50t-138 -25t-140 61t-50 170v891h229v-854zM455 1382q82 0 127 36t55 116h119q-14 -201 -172 -267q-55 -24 -129 -24q-137 0 -222 87q-70 76 -79 204h118q19 -152 183 -152z" />
    <glyph glyph-name="Uring" unicode="&#x16e;" horiz-adv-x="1024" 
d="M123 1479h254v-1117q0 -162 135 -161q135 0 135 161v1117h254v-1106q0 -193 -103 -293q-104 -100 -286 -100t-286 100q-103 100 -103 293v1106zM662 1909q61 -61 61 -149t-60 -147t-149 -60q-88 -1 -148 61q-61 62 -61 148q-1 86 61 146q62 62 148 62t148 -61zM408 1761
q0 -45 30 -75t76 -31q45 0 76 31q31 32 31 76t-31 75t-76 31q-46 0 -76 -31t-30 -76z" />
    <glyph glyph-name="uring" unicode="&#x16f;" 
d="M340 248q0 -80 82 -80q37 0 72 20t75 50v864h230v-1102h-217v111q-37 -31 -66 -56t-77 -50t-138 -25t-140 61t-50 170v891h229v-854zM596 1294q-62 -61 -148 -61t-147 61t-61 149t60 147t147 60q87 2 149 -60t61 -148q0 -86 -61 -148zM342 1442q0 -45 31 -76t76 -31
t75 31t31 76q0 45 -31 76q-32 30 -76 30t-75 -30t-31 -76z" />
    <glyph glyph-name="Uhungarumlaut" unicode="&#x170;" horiz-adv-x="1024" 
d="M123 1479h254v-1117q0 -162 135 -161q135 0 135 161v1117h254v-1106q0 -193 -103 -293q-104 -100 -286 -100t-286 100q-103 100 -103 293v1106zM725 1554h-170l162 295h276zM377 1554h-162l141 295h277z" />
    <glyph glyph-name="uhungarumlaut" unicode="&#x171;" 
d="M340 248q0 -80 82 -80q37 0 72 20t75 50v864h230v-1102h-217v111q-37 -31 -66 -56t-77 -50t-138 -25t-140 61t-50 170v891h229v-854zM666 1233h-170l161 295h277zM317 1233h-161l141 295h276z" />
    <glyph glyph-name="Uogonek" unicode="&#x172;" horiz-adv-x="1024" 
d="M561 -334q75 0 184 82l39 -74q-66 -47 -138 -85t-154 -38t-140.5 48.5t-58.5 134.5t47 140t115 91q14 8 28 17q-162 6 -261 102t-99 289v1106h254v-1117q0 -162 135 -161.5t135 161.5v1117h254v-1106q0 -193 -104 -293q-61 -59 -150 -84q-7 -4 -27 -16t-89.5 -66.5
t-69.5 -151.5q0 -47 29.5 -71.5t70.5 -24.5z" />
    <glyph glyph-name="uogonek" unicode="&#x173;" 
d="M340 248q0 -80 59.5 -80t94 20.5t75.5 49.5v864h230v-1102h-72q-23 -10 -87.5 -57t-92 -88t-27.5 -91t30 -74t71 -24q71 0 178 78l39 -74q-66 -47 -134.5 -83t-151.5 -36t-141.5 48.5t-58.5 134.5q0 146 162 229q39 18 74 33v117q-43 -33 -72 -57.5t-76 -50t-138 -25.5
t-141 61t-50 170v891h229v-854z" />
    <glyph glyph-name="Wcircumflex" unicode="&#x174;" horiz-adv-x="1366" 
d="M563 1479h209l172 -942h4l142 942h237l-260 -1479h-213l-184 977h-4l-172 -977h-213l-281 1479h238l155 -942h4zM561 1849h225l197 -295h-188l-121 183l-121 -183h-188z" />
    <glyph glyph-name="wcircumflex" unicode="&#x175;" horiz-adv-x="1138" 
d="M483 1100h170l123 -686h4l125 688h221l-254 -1102h-184l-125 696h-4l-149 -696h-185l-213 1102h221l101 -688h4zM457 1528h225l197 -295h-189l-121 182l-120 -182h-189z" />
    <glyph glyph-name="Ycircumflex" unicode="&#x176;" 
d="M582 0h-254v614l-308 865h259l178 -564h4l170 564h258l-307 -865v-614zM344 1849h225l197 -295h-188l-121 183l-121 -183h-189z" />
    <glyph glyph-name="ycircumflex" unicode="&#x177;" horiz-adv-x="796" 
d="M174 -346h-96v188h55q86 0 119 45t33 115t-25 164l-240 936h234l147 -705h5l139 705h231l-289 -1184q-34 -145 -108 -205q-74 -59 -205 -59zM293 1528h225l197 -295h-189l-120 182l-121 -182h-189z" />
    <glyph glyph-name="Ydieresis" unicode="&#x178;" 
d="M582 0h-254v614l-308 865h259l178 -564h4l170 564h258l-307 -865v-614zM506 1581v221h221v-221h-221zM403 1802v-221h-221v221h221z" />
    <glyph glyph-name="Zacute" unicode="&#x179;" 
d="M147 1257v222h672v-242l-467 -1016h467v-221h-729v242l473 1015h-416zM541 1554h-170l161 295h277z" />
    <glyph glyph-name="zacute" unicode="&#x17a;" horiz-adv-x="796" 
d="M90 913v189h645v-189l-428 -725h428v-188h-674v188l420 725h-391zM467 1233h-170l162 295h276z" />
    <glyph glyph-name="Zdotaccent" unicode="&#x17b;" 
d="M147 1257v222h672v-242l-467 -1016h467v-221h-729v242l473 1015h-416zM602 1800v-221h-221v221h221z" />
    <glyph glyph-name="zdotaccent" unicode="&#x17c;" horiz-adv-x="796" 
d="M90 913v189h645v-189l-428 -725h428v-188h-674v188l420 725h-391zM535 1479v-222h-222v222h222z" />
    <glyph glyph-name="Zcaron" unicode="&#x17d;" 
d="M147 1257v222h672v-242l-467 -1016h467v-221h-729v242l473 1015h-416zM567 1556h-225l-197 295h189l121 -182l120 182h189z" />
    <glyph glyph-name="zcaron" unicode="&#x17e;" horiz-adv-x="796" 
d="M90 913v189h645v-189l-428 -725h428v-188h-674v188l420 725h-391zM512 1233h-225l-197 295h189l120 -182l121 182h189z" />
    <glyph glyph-name="florin" unicode="&#x192;" 
d="M137 -160q47 0 80 33t60.5 156.5t64.5 711.5h-190v172h204q15 309 119 447.5t268 138.5q35 0 97 -10v-193q-46 27 -92 27t-108 -40t-67 -370h209v-172h-217q-16 -260 -37.5 -462.5t-65.5 -342t-118 -212t-194 -72.5q-39 0 -80 10v188q20 -10 67 -10z" />
    <glyph glyph-name="Scommaaccent" unicode="&#x218;" 
d="M451 1278q-61 0 -95 -38t-32 -104q0 -66 38 -120q62 -89 220 -214q258 -205 258 -444q0 -178 -110 -279t-286 -100q-177 1 -278 119t-109 291l242 35q8 -113 49 -168t105 -55q65 0 105 35q40 34 40 104t-38 127t-95 111t-125 106q-258 201 -258 444q0 180 102 276t291 95
q226 0 317 -215q28 -66 35 -143l-241 -27q-11 124 -92 156q-23 8 -43 8zM352 -299v197h191v-193l-72 -172h-94l59 168h-84z" />
    <glyph glyph-name="scommaaccent" unicode="&#x219;" horiz-adv-x="796" 
d="M397 934q-45 0 -73 -23t-27 -65q0 -42 37 -84q37 -41 135 -112q98 -70 146 -118q112 -113 112 -255q0 -141 -87 -219t-236 -78q-150 0 -236 80t-113 227l201 55q10 -70 42 -122t110 -52q46 0 74 25t28 71t-32 87q-43 54 -178 149q-220 156 -220 322q0 135 90 219
q90 83 221 82t218 -83t114 -211l-195 -32q-25 137 -131 137zM295 -299v197h190v-193l-71 -172h-95l60 168h-84z" />
    <glyph glyph-name="uni021A" unicode="&#x21a;" horiz-adv-x="796" 
d="M270 1257h-245v222h745v-222h-246v-1257h-254v1257zM301 -299v197h191v-193l-72 -172h-94l59 168h-84z" />
    <glyph glyph-name="uni021B" unicode="&#x21b;" horiz-adv-x="569" 
d="M147 227v686h-127v189h127v297h230v-297h153v-189h-153v-634q0 -90 78 -91h75v-196q-46 -12 -114 -12q-269 0 -269 247zM227 -299v197h191v-193l-72 -172h-94l59 168h-84z" />
    <glyph glyph-name="dotlessj" unicode="&#x237;" horiz-adv-x="454" 
d="M354 -63q0 -285 -266 -285h-88v209h39q86 0 86 86v1153h229v-1163z" />
    <glyph glyph-name="circumflex" unicode="&#x2c6;" horiz-adv-x="454" 
d="M115 1528h225l197 -295h-189l-121 182l-121 -182h-188z" />
    <glyph glyph-name="caron" unicode="&#x2c7;" horiz-adv-x="454" 
d="M340 1233h-225l-197 295h188l121 -182l121 182h189z" />
    <glyph glyph-name="uni02C9" unicode="&#x2c9;" horiz-adv-x="454" 
d="M-74 1436h602v-131h-602v131z" />
    <glyph glyph-name="breve" unicode="&#x2d8;" horiz-adv-x="454" 
d="M193.5 1243q-107.5 0 -183 82t-84.5 209h119q10 -80 55 -116t127 -36t127 36t56 116h118q-14 -201 -120.5 -246t-214 -45z" />
    <glyph glyph-name="dotaccent" unicode="&#x2d9;" horiz-adv-x="454" 
d="M338 1479v-222h-221v222h221z" />
    <glyph glyph-name="ring" unicode="&#x2da;" horiz-adv-x="454" 
d="M18 1442q0 43 16.5 81t45.5 66.5t66.5 45t80.5 16.5t81 -16.5t66.5 -45t45 -66.5t16.5 -81t-16.5 -81t-45 -66.5t-66.5 -45t-81 -16.5t-80.5 16.5t-66.5 45t-45.5 66.5t-16.5 81zM121 1442q0 -45 30.5 -76t75.5 -31t76 31t31 76t-31 75.5t-76 30.5t-75.5 -30.5
t-30.5 -75.5z" />
    <glyph glyph-name="ogonek" unicode="&#x2db;" horiz-adv-x="454" 
d="M326 -334q72 0 184 82l39 -74q-66 -47 -137.5 -85t-154.5 -38t-141.5 48.5t-58.5 134.5q0 147 133 213t308 96v-25q-113 -46 -193 -104.5t-80 -151.5q0 -47 30 -71.5t71 -24.5z" />
    <glyph glyph-name="tilde" unicode="&#x2dc;" horiz-adv-x="454" 
d="M104 1491q49 0 106.5 -26.5t87.5 -40t70 -13.5q74 0 78 90h115q-30 -164 -95 -202.5t-109 -38.5q-64 0 -138 39.5t-123 39.5t-67.5 -22.5t-20.5 -67.5h-114q45 242 210 242z" />
    <glyph glyph-name="hungarumlaut" unicode="&#x2dd;" horiz-adv-x="454" 
d="M416 1233h-170l162 295h276zM68 1233h-162l141 295h277z" />
    <glyph glyph-name="uni0394" unicode="&#x394;" horiz-adv-x="1411" 
d="M688 1180l-344 -957h713zM18 0l547 1458h250l580 -1458h-1377z" />
    <glyph glyph-name="uni03A9" unicode="&#x3a9;" horiz-adv-x="1558" 
d="M870 0v393q158 37 236 149.5t78 283.5t-115.5 298t-299.5 127t-300.5 -128t-116.5 -300q0 -348 312 -430v-393h-568v209h369v80q-181 53 -276 201t-95 315q0 304 195 488t479 184t425.5 -130t194 -248.5t52.5 -236.5q0 -224 -96 -375.5t-277 -197.5v-80h373v-209h-570z
" />
    <glyph glyph-name="uni03BC" unicode="&#x3bc;" 
d="M340 248q0 -80 59.5 -80t94 20.5t75.5 49.5v864h230v-1102h-217v111q-110 -96 -156.5 -111.5t-85.5 -19.5v-328h-229v1450h229v-854z" />
    <glyph glyph-name="pi" unicode="&#x3c0;" horiz-adv-x="1222" 
d="M776 256v520h-401v-776h-230v776h-143v217h1167v-217h-161v-467q0 -64 12.5 -97.5t60.5 -33.5q47 0 95 23v-172q-92 -45 -171 -45q-138 0 -183.5 70t-45.5 202z" />
    <glyph glyph-name="endash" unicode="&#x2013;" horiz-adv-x="1024" 
d="M0 477v148h1024v-148h-1024z" />
    <glyph glyph-name="emdash" unicode="&#x2014;" horiz-adv-x="2048" 
d="M0 477v148h2048v-148h-2048z" />
    <glyph glyph-name="quoteleft" unicode="&#x2018;" horiz-adv-x="454" 
d="M348 1245v-241h-242v241l142 254h108l-100 -254h92z" />
    <glyph glyph-name="quoteright" unicode="&#x2019;" horiz-adv-x="454" 
d="M106 1237v242h242v-242l-141 -254h-109l101 254h-93z" />
    <glyph glyph-name="quotesinglbase" unicode="&#x201a;" horiz-adv-x="454" 
d="M106 0v242h242v-242l-141 -254h-109l101 254h-93z" />
    <glyph glyph-name="quotedblleft" unicode="&#x201c;" 
d="M385 1245v-241h-242v241l142 254h108l-100 -254h92zM764 1245v-241h-242v241l142 254h108l-100 -254h92z" />
    <glyph glyph-name="quotedblright" unicode="&#x201d;" 
d="M524 1237v242h242v-242l-141 -254h-109l100 254h-92zM145 1237v242h242v-242l-141 -254h-109l101 254h-93z" />
    <glyph glyph-name="quotedblbase" unicode="&#x201e;" 
d="M524 0v242h242v-242l-141 -254h-109l100 254h-92zM145 0v242h242v-242l-141 -254h-109l101 254h-93z" />
    <glyph glyph-name="dagger" unicode="&#x2020;" horiz-adv-x="1024" 
d="M889 922l-342 86l92 -346q-31 -104 -49.5 -313.5t-38.5 -512.5h-78q-20 303 -38.5 512t-49.5 314l92 346l-342 -86v254l334 -86l-80 409h246l-80 -409l334 86v-254z" />
    <glyph glyph-name="daggerdbl" unicode="&#x2021;" horiz-adv-x="1024" 
d="M889 922l-342 86l92 -340l-92 -340l342 86v-254l-334 86l80 -410h-246l80 410l-334 -86v254l342 -86l-92 340l92 340l-342 -86v254l334 -86l-80 409h246l-80 -409l334 86v-254z" />
    <glyph glyph-name="bullet" unicode="&#x2022;" horiz-adv-x="1024" 
d="M248 999.5q107 108.5 261 108.5t263 -107.5t109 -261.5q0 -153 -108.5 -261.5t-263.5 -108.5t-261.5 109t-106.5 261t107 260.5z" />
    <glyph glyph-name="ellipsis" unicode="&#x2026;" horiz-adv-x="2048" 
d="M225 0v242h234v-242h-234zM1589 0v242h234v-242h-234zM907 0v242h234v-242h-234z" />
    <glyph glyph-name="perthousand" unicode="&#x2030;" horiz-adv-x="2048" 
d="M29 1171.5q0 63.5 24.5 120t65.5 97.5t97 65.5t119.5 24.5t120 -24.5t97.5 -65.5t65.5 -97.5t24.5 -120t-24.5 -120t-65.5 -97.5t-97.5 -65.5t-120 -24.5t-119.5 24.5t-97 65.5t-65.5 97.5t-24.5 120zM1405 307.5q0 63.5 24.5 119.5t65.5 97t97.5 65.5t120 24.5
t119.5 -24.5t97 -65.5t65.5 -97t24.5 -119.5t-24.5 -120t-65.5 -97.5t-97 -65.5t-119.5 -24.5t-120 24.5t-97.5 65.5t-65.5 97.5t-24.5 120zM680 307.5q0 63.5 24.5 119.5t65.5 97t97.5 65.5t120 24.5t119.5 -24.5t97 -65.5t65.5 -97t24.5 -119.5t-24.5 -120t-65.5 -97.5
t-97 -65.5t-119.5 -24.5t-120 24.5t-97.5 65.5t-65.5 97.5t-24.5 120zM1038 1499h144l-842 -1519h-143zM844 307.5q0 -59.5 42 -101.5t101.5 -42t101 42t41.5 101.5t-41.5 101.5t-101 42t-101.5 -42t-42 -101.5zM1569 307.5q0 -59.5 42 -101.5t101.5 -42t101 42t41.5 101.5
t-41.5 101.5t-101 42t-101.5 -42t-42 -101.5zM193 1171.5q0 -59.5 41.5 -101.5t101 -42t101.5 42t42 101.5t-42 101.5t-101.5 42t-101 -42t-41.5 -101.5z" />
    <glyph glyph-name="guilsinglleft" unicode="&#x2039;" horiz-adv-x="681" 
d="M561 236h-196l-236 317l236 313h202l-239 -315z" />
    <glyph glyph-name="guilsinglright" unicode="&#x203a;" horiz-adv-x="681" 
d="M354 551l-239 315h202l236 -313l-236 -317h-196z" />
    <glyph glyph-name="fraction" unicode="&#x2044;" horiz-adv-x="342" 
d="M-342 -20l840 1519h186l-840 -1519h-186z" />
    <glyph glyph-name="Euro" unicode="&#x20ac;" 
d="M823 1149q-95 129 -247 129q-68 0 -119 -39t-51 -125v-133h370l-47 -172h-323v-164h282l-47 -172h-235v-98q0 -94 52 -135t124 -41q144 0 241 90v-238q-120 -71 -279 -71t-275.5 103t-116.5 275v115h-123l47 172h76v164h-123l47 172h76v139q0 175 124 277t303 102
t308 -117z" />
    <glyph glyph-name="afii61289" unicode="&#x2113;" horiz-adv-x="1024" 
d="M690 1161q0 59 -22.5 100.5t-59.5 41.5t-63.5 -46.5t-26.5 -126.5v-362q172 187 172 393zM647 164q85 0 180 76h4l89 -136q-154 -133 -323 -133t-254 82t-85 213v109l-115 -105h-4l-92 144l209 174v493q0 172 99 284t243 112t225.5 -83.5t81.5 -229.5t-96 -296.5
t-291 -320.5v-240q0 -111 53.5 -127t75.5 -16z" />
    <glyph glyph-name="trademark" unicode="&#x2122;" horiz-adv-x="2027" 
d="M1843 1479v-844h-188v618h-4l-226 -618h-141l-225 618h-4v-618h-189v844h279l211 -555l211 555h276zM758 1325h-246v-690h-197v690h-245v154h688v-154z" />
    <glyph glyph-name="Omega" unicode="&#x2126;" horiz-adv-x="1558" 
d="M870 0v393q158 37 236 149.5t78 283.5t-115.5 298t-299.5 127t-300.5 -128t-116.5 -300q0 -348 312 -430v-393h-568v209h369v80q-181 53 -276 201t-95 315q0 304 195 488t479 184t425.5 -130t194 -248.5t52.5 -236.5q0 -224 -96 -375.5t-277 -197.5v-80h373v-209h-570z
" />
    <glyph glyph-name="estimated" unicode="&#x212e;" horiz-adv-x="1228" 
d="M918 604v297q-129 123 -301.5 123t-294.5 -123v-297h596zM322 530v-370q121 -121 296 -121q129 0 223.5 58.5t172.5 187.5l71 -43q-96 -151 -202 -214t-246 -63t-237 44t-166.5 121t-106.5 179.5t-37 284t146.5 342t382.5 160.5q235 0 382.5 -159t147.5 -407h-827z" />
    <glyph glyph-name="partialdiff" unicode="&#x2202;" horiz-adv-x="1146" 
d="M811 592q-110 127 -239 127t-193 -82t-64 -203q0 -120 57 -200t183 -80t194 127t64 262zM512 1292q-123 0 -248 -102l-127 147q86 66 169.5 103t219.5 37t335.5 -123.5t199.5 -626.5q0 -504 -181.5 -629t-342.5 -125q-205 0 -330 133t-125 334q0 200 125 328.5t319 128.5
q158 0 289 -109l2 54q5 164 -69.5 307t-235.5 143z" />
    <glyph glyph-name="Delta" unicode="&#x2206;" horiz-adv-x="1411" 
d="M688 1180l-344 -957h713zM18 0l547 1458h250l580 -1458h-1377z" />
    <glyph glyph-name="product" unicode="&#x220f;" horiz-adv-x="1521" 
d="M1155 -438v1824h-788v-1824h-244v2048h1276v-2048h-244z" />
    <glyph glyph-name="summation" unicode="&#x2211;" horiz-adv-x="1339" 
d="M51 -438v194l617 842l-590 819v193h1186v-224h-863l557 -786l-593 -815h923v-223h-1237z" />
    <glyph glyph-name="minus" unicode="&#x2212;" horiz-adv-x="1228" 
d="M96 418v200h1037v-200h-1037z" />
    <glyph glyph-name="uni2215" unicode="&#x2215;" horiz-adv-x="342" 
d="M-342 -20l840 1519h186l-840 -1519h-186z" />
    <glyph glyph-name="uni2219" unicode="&#x2219;" horiz-adv-x="454" 
d="M90 517q0 58 39 98t97 40t98 -40t41 -98q0 -58 -40 -97q-41 -39 -99 -39t-97 39t-39 97z" />
    <glyph glyph-name="radical" unicode="&#x221a;" horiz-adv-x="1116" 
d="M705 -438h-226l-309 641l-104 -49l-91 190l318 145l258 -550l340 1671h250z" />
    <glyph glyph-name="infinity" unicode="&#x221e;" horiz-adv-x="1685" 
d="M442 709q-72 0 -113.5 -53.5t-41.5 -123.5t43 -116.5t119 -46.5q131 0 272 163q-164 177 -279 177zM1243 367q76 0 117 49t41 120.5t-44 123t-131 51.5t-161 -76t-98 -103q144 -165 276 -165zM1498 270.5q-95 -110.5 -260 -110.5t-260 93t-134 138
q-116 -122 -194.5 -175.5t-180.5 -53.5t-167.5 28.5t-113 80t-72 120t-24.5 189.5t93.5 227t263.5 106q169 0 261.5 -97t133.5 -146q101 122 189.5 183.5t188.5 61.5q101 0 166.5 -28.5t135 -105.5t69.5 -238.5t-95 -272z" />
    <glyph glyph-name="integral" unicode="&#x222b;" horiz-adv-x="1257" 
d="M469 1352q0 61 88 158t225 98q80 0 131.5 -28t74 -57.5t22.5 -74.5t-32 -78t-80 -33t-70.5 24.5t-33 53.5t-19.5 53.5t-30 24.5q-36 0 -36 -57l8 -297l2 -963v-218q0 -219 -90 -307.5t-196 -88.5t-179.5 41t-73.5 121q0 47 32 77.5t80 30.5t69.5 -24.5t33 -53t18.5 -53.5
t31 -25q34 0 35 68l-8 229l-2 1084v295z" />
    <glyph glyph-name="approxequal" unicode="&#x2248;" horiz-adv-x="1228" 
d="M889 371q101 0 125 129h151q-21 -249 -125 -305t-174 -56t-141.5 21.5t-142 47t-135 47t-113.5 21.5t-81 -44t-40 -93h-154q21 242 127 302.5t176 60.5t135.5 -20.5t131 -45t131 -45t129.5 -20.5zM891 805q102 0 127 131h151q-21 -248 -129 -304.5t-178 -56.5
t-138.5 21.5t-137 46.5t-132 46.5t-115.5 21.5t-83 -42t-39 -94h-154q21 243 126 301t175 58t136.5 -20.5t134 -44t133.5 -44t123 -20.5z" />
    <glyph glyph-name="notequal" unicode="&#x2260;" horiz-adv-x="1228" 
d="M76 193v231h354l115 229h-469v232h586l159 313l203 -100l-109 -213h236v-232h-352l-115 -229h467v-231h-586l-159 -318l-201 102l106 216h-235z" />
    <glyph glyph-name="lessequal" unicode="&#x2264;" horiz-adv-x="1228" 
d="M76 -78v232h1075v-232h-1075zM76 565v232l1075 356v-242l-758 -229l758 -223v-242z" />
    <glyph glyph-name="greaterequal" unicode="&#x2265;" horiz-adv-x="1228" 
d="M76 -78v232h1075v-232h-1075zM76 217v242l758 223l-758 229v242l1075 -356v-232z" />
    <glyph glyph-name="lozenge" unicode="&#x25ca;" horiz-adv-x="1214" 
d="M606 1300l-237 -571l237 -573l240 573zM713 -72h-215l-365 801l367 801h213l368 -801z" />
    <glyph glyph-name="grave.cap" unicode="&#xe300;" horiz-adv-x="454" 
d="M-66 1849h277l162 -295h-170z" />
    <glyph glyph-name="acute.cap" unicode="&#xe301;" horiz-adv-x="454" 
d="M252 1554h-170l162 295h276z" />
    <glyph glyph-name="circumflex.cap" unicode="&#xe302;" horiz-adv-x="454" 
d="M115 1849h225l197 -295h-189l-121 183l-121 -183h-188z" />
    <glyph glyph-name="caron.cap" unicode="&#xe303;" horiz-adv-x="454" 
d="M340 1554h-225l-197 295h188l121 -182l121 182h189z" />
    <glyph glyph-name="tilde.cap" unicode="&#xe304;" horiz-adv-x="454" 
d="M350 1581q-54 0 -109 28.5t-84.5 40t-69.5 11.5q-75 0 -79 -90h-114q45 241 210 241q53 0 108.5 -26.5t85.5 -39.5t70 -13q74 0 78 90h115q-45 -242 -211 -242z" />
    <glyph glyph-name="dieresis.cap" unicode="&#xe305;" horiz-adv-x="454" 
d="M279 1579v221h221v-221h-221zM176 1800v-221h-221v221h221z" />
    <glyph glyph-name="macron.cap" unicode="&#xe306;" horiz-adv-x="454" 
d="M-74 1757h602v-131h-602v131z" />
    <glyph glyph-name="breve.cap" unicode="&#xe307;" horiz-adv-x="454" 
d="M193.5 1565q-107.5 0 -183 82t-84.5 208h119q10 -80 55 -115.5t127 -35.5t127 36t56 115h118q-14 -200 -120.5 -245t-214 -45z" />
    <glyph glyph-name="ring.cap" unicode="&#xe308;" horiz-adv-x="454" 
d="M18 1761q0 43 16.5 81t45.5 66.5t66.5 45t80.5 16.5t81 -16.5t66.5 -45t45 -66.5t16.5 -81t-16.5 -81t-45 -66.5t-66.5 -45t-81 -16.5t-80.5 16.5t-66.5 45t-45.5 66.5t-16.5 81zM121 1761q0 -45 30.5 -75.5t75.5 -30.5t76 30.5t31 75.5t-31 76t-76 31t-75.5 -31
t-30.5 -76z" />
    <glyph glyph-name="hungarumlaut.cap" unicode="&#xe309;" horiz-adv-x="454" 
d="M416 1554h-170l162 295h276zM68 1554h-162l141 295h277z" />
    <glyph glyph-name="dotaccent.cap" unicode="&#xe30a;" horiz-adv-x="454" 
d="M338 1800v-221h-221v221h221z" />
    <glyph glyph-name="caron.alt" unicode="&#xe30b;" horiz-adv-x="454" 
d="M129 1288v191h176v-187l-72 -178h-83l57 174h-78z" />
    <glyph glyph-name="commaaccent" unicode="&#xe30c;" horiz-adv-x="454" 
d="M129 -299v197h190v-193l-71 -172h-94l59 168h-84z" />
    <glyph glyph-name="commaaccent.alt" unicode="&#xe30d;" horiz-adv-x="454" 
d="M313 1378v-172h-174v170l66 152h86l-53 -150h75z" />
    <glyph glyph-name="uniF8FF" unicode="&#xf8ff;" horiz-adv-x="1048" 
d="M1049 1470v-1470h-1049v1470h1049zM946 102v1264h-844v-1264h844zM680 988q0 56 -46 106.5t-109.5 50.5t-109.5 -45t-59 -150l-102 17q14 145 90 212.5t186 67.5t182 -73.5t72 -194.5q0 -66 -25.5 -120t-102.5 -124t-89 -108.5t-12 -147.5h-94l-4 35q0 113 26.5 165.5
t93.5 118.5t85 100t18 90zM455 240v137h114v-137h-114z" />
    </font>
</defs>
</svg>
